<svg id="圖層_1" data-name="圖層 1" xmlns="http://www.w3.org/2000/svg" viewBox="0 0 348 104"><path d="M172,1h10c3.6,4.05,11.35,4.05,17,0h2c-2.59,4.36-4.58,8.79-1.73,13.83,1.09,5.45,5.39,5.84,9.73,6.16l11.91-3.16,1,.08c0,.71,0,1.42.05,2.12L202.9,24l-4.43-2c.13,3.87.13,3.87,4.21,4,.92,1.6,1.85,3.2,2.77,4.81-.49.73-1,1.47-1.46,2.21-.89-.3-2.22-.33-2.6-1-3.83-6.19-6.09-6.75-12.5-3.06a40.54,40.54,0,0,1-5,2.06L183,31,183,29.88c2.86-1.92,5.85-3.67,8.5-5.86a4.84,4.84,0,0,0,1.28-3.88c-.12-.85-1.7-1.94-2.77-2.14-6.3-1.17-12.65-2.11-19-3.12V13a30.51,30.51,0,0,0-1.84-4.35C167.54,6,165.72,3.54,164,1h3l10,10a91.66,91.66,0,0,0,9.75.86c1,0,2.06-1.56,3.08-2.41-1.06-.8-2-2-3.21-2.34C183.14,6.21,179.55,5.68,176,5Z" fill="#ac52d4"/><path d="M229,1h26l-.06,6.05a6.64,6.64,0,0,0,.05.89l-2.07,0-9.36-2-.44,1.5L247,11l-6.73,2.84c6.38,2.41,10.33.79,12.65-5L253,9,255,9c-2.12,6.22-6.15,11.75-5.39,19,.26,2.45-2.25,2.18-3.57.06l-3.35-6.18-1.84,1.34,4.05,4.89-1.17,2L234.06,21l-1.92-2.84-1,.84,1.79,2-2.81,1.92-1.36-1.47-.62,1.58-.48,0L226,22.94c-1.45-5.06,1.89-6.26,5-6.6a51.58,51.58,0,0,0-.47-5.74c-.13-.64-1.06-1.13-1.62-1.68Q229,5,229,1Z" fill="#c576e7"/><path d="M255,7.94a6.7,6.7,0,0,1-.05-.9c.69-2,1.37-4,2.06-6h2l1,1a15.76,15.76,0,0,1,3.11,1c3.37,1.92,6.67,4,10,5.94l-2.45.15c-8.78-3.53-11.43-3.2-14.11,3.3C254.64,17,254.11,22.13,253,27l1.05.89,6.89,1.92L268,24.93l7.85-3.78c.06.94.13,1.89.2,2.84l-5,4-14,6h-.95l-11.67-.94c-.22-1-.45-2-.67-3l1.17-2L246,28c1.32,2.12,3.83,2.39,3.57-.06-.76-7.25,3.27-12.78,5.39-19Z" fill="#b35cd9"/><path d="M171,13c0,.63,0,1.26,0,1.89a7.53,7.53,0,0,0-.11.83,6.44,6.44,0,0,0-.88.13c-5.73,1.32-7.11,3.9-4.88,9.15l-2.56,4.73c-1-1.23-2.07-2.45-3.07-3.71-2.13-2.69-4.23-5.4-6.34-8.09-1.63-1.88-2.73-4.87-6.16-2.86l-1.08.79L141.27,24,139,22l3.14-5.18-1.69-.93c-.86,1.72-1.73,3.43-2.59,5.14l-5.91-.8c3.75-3.83,7.81-7.42,11.13-11.59,2-2.47,1.4-5.37-2.22-6.62L141,1h9c-4,2.67-4.69,6.51-4,11.32l5.3-1.44L159,19.15l3.41,2.07C163.7,14.17,164.88,13.14,171,13Z" fill="#b966dd"/><path d="M159,19.15l-7.74-8.27L146,12.32c-.65-4.81.07-8.65,4-11.32h8C160.14,7,161.24,13,159,19.15Z" fill="#e4a2f4"/><path d="M159,19.15C161.24,13,160.14,7,158,1h6c1.72,2.54,3.54,5,5.14,7.64A30.51,30.51,0,0,1,171,13c-6.1.15-7.28,1.18-8.57,8.23Z" fill="#c576e7"/><path d="M277,1h8l2,2.12-1,9.44q-2.09,2.2-4.19,4.4l-2.69,0C275.19,12.07,277.68,6.33,277,1Z" fill="#f3c8fc"/><path d="M1,22V8l6.12.84c.21,1.21.46,2.41.64,3.62a41,41,0,0,1,.68,5.38c0,2.42-.24,4.84-.39,7.26L8.9,27,7.18,28.3,2,30c-.32,0-.63,0-.95,0V27l1.94-.06,2.89-1.68Z" fill="#c9dffc"/><path d="M208,1h4l8,7c0,.33,0,.66,0,1,.22,4.7-3.17,4-6,4s-6.2.53-6-4.06Z" fill="#c576e7"/><path d="M345,1c0,.36,0,.72,0,1.07-.34,2.6-.67,5.2-1,7.8-3.24-.21-7.25.68-9.54-.91A15.84,15.84,0,0,0,324,6l-3-3h0c.33-.67.67-1.33,1-2h6c1.74,3.9,5.23,3.9,8.74,4,2.92.09,5.5-.06,5.26-4Z" fill="#d28bed"/><path d="M208,1c0,2.65,0,5.29-.05,7.94l-8.68,5.89c-2.85-5-.86-9.47,1.73-13.83Z" fill="#e9aef9"/><path d="M95,1h2c.63,1.69,1,3.57,2,5s2.68,2.68,4.06,4l-4,2.11-2.93,1.15-1.4,6.81L87.1,25l-1-.06L85,23V21c3.81-.47,8.33,0,7.92-6l.48-6C98.7,7.29,93.65,3.51,95,1Z" fill="#d28bed"/><path d="M15,1H26c0,.63,0,1.27,0,1.9-2.42,4.08,1.22,5.7,3.22,8L29,16l-6.66-2.93L22.18,11c-.24-.66-.35-1.82-.73-1.92C17.23,8,15.59,4.93,15,1Z" fill="#a9cef5"/><path d="M103,10c-1.38-1.32-3-2.46-4.06-4s-1.35-3.34-2-5h5l.35,2.74L103,2.38l12.86,2.69-10.78,4Z" fill="#e9aef9"/><path d="M92.92,15c.41,6-4.11,5.55-7.92,6l-.72-8.88a27.78,27.78,0,0,0,3.21-4.36c1.11-2.28.63-3.95-2.47-3.57L84,1h6c0,2.6,0,5.2.07,7.8-.74,2.45-1.49,4.9-2.23,7.36Z" fill="#f3c8fc"/><path d="M55,1h8a12.5,12.5,0,0,1,2.16,10.9L63.93,12,59,8.88Z" fill="#c9dffc"/><path d="M65.17,11.9A12.53,12.53,0,0,0,63,1h6c.17,10.41.68,11,10,11,0,.34,0,.68,0,1s0,.57,0,.86A16,16,0,0,1,66,12,2.58,2.58,0,0,0,65.17,11.9Z" fill="#b966dd"/><path d="M84,1l1,3.17c-.69,1.89-1.38,3.77-2.08,5.66L79,11c-2.8-2.73-4.7-5.82-4-9.95Z" fill="#e4a2f4"/><path d="M75,1c-.69,4.13,1.21,7.22,4,10,0,.35,0,.71,0,1.06-9.31,0-9.82-.6-10-11Z" fill="#cc85e6"/><path d="M313,1h5q-1,5-2,10c-1.66,2.9-3.45,2.25-5.27.17C309.8,10.11,308.9,9,308,8V7Z" fill="#f8d2fe"/><path d="M273.08,9c-3.32-2-6.62-4-10-5.94A15.76,15.76,0,0,0,260,2a6.55,6.55,0,0,0,0-1h15Z" fill="#cc85e6"/><path d="M15,1c.59,3.93,2.23,7,6.45,8.08.38.1.49,1.26.73,1.92L12,9,10,4.92,11,1Z" fill="#84bdeb"/><path d="M273.08,9,275,1h2c.68,5.33-1.81,11.07,2.09,16-.07.64-.15,1.29-.22,1.93l-1.77-1.14L269.83,12l.8-2.9Z" fill="#b966dd"/><path d="M40,1H50c0,2.68,0,5.35-.08,8l-1.6.25-2.17-1.5L39,4.05,35.9,4Z" fill="#63a6dc"/><path d="M122,1h8c.07,1,.15,2.05.22,3.07L126,7.18,120,4l-.1-1.15Z" fill="#a450cb"/><path d="M342,1c.24,4-2.34,4.1-5.26,4-3.51-.11-7-.11-8.74-4Z" fill="#ebb8f9"/><path d="M40,1,35.9,4l-5,4C30.4,5.23,30.08,2.28,26,2.9V1Z" fill="#b5d6fa"/><path d="M90.07,8.8c0-2.6,0-5.2-.07-7.8h5c-1.35,2.51,3.7,6.29-1.6,8Z" fill="#e9aef9"/><path d="M55,1l4,7.88L58.11,10c-6.17-.08-7.1-1.27-5.55-7.13.17-.62.3-1.25.44-1.87Z" fill="#84bdeb"/><path d="M316,11q1-5,2-10h4c-.33.67-.67,1.33-1,2l-.23.41L321,3l3,3-2,1q-2.5,2-5,4Z" fill="#d99af0"/><path d="M172,1c1.33,1.33,2.66,2.67,4,4,.33,2,.67,4,1,6L167,1Z" fill="#b35cd9"/><path d="M10,4.92,12,9H8.11a5.49,5.49,0,0,1-1-.14L1,8V3Z" fill="#63a6dc"/><path d="M53,1c-.14.62-.27,1.25-.44,1.87C51,8.73,51.94,9.92,58.11,10c-3.23,3.92-5.79,2.17-8.19-1,0-2.68,0-5.35.08-8Z" fill="#a9cef5"/><path d="M220,8l-8-7h9Z" fill="#ebb8f9"/><path d="M199,1c-5.65,4.05-13.4,4.05-17,0Z" fill="#e4a2f4"/><path d="M10,4.92,1,3c.5-.67,1-1.87,1.51-1.91C5.33.9,8.17,1,11,1Z" fill="#8ec1ec"/><path d="M119.92,2.87c0,.39.07.77.1,1.15l0,.07-4.23,1L103,2.38l-.63,1.36L102,1h9Z" fill="#b966dd"/><path d="M308,7V8l-2,0-2-2-3-5h8Z" fill="#fbedfe"/><path d="M287,3.12,285,1h4l10.07,3.8L299,5c-.05.49-.11,1-.17,1.48Z" fill="#b966dd"/><path d="M229,1q0,4-.08,7.92A4.05,4.05,0,0,0,228,9l-2-2-3-6Z" fill="#e9aef9"/><path d="M223,1l3,6-6,2c0-.32,0-.65,0-1,.33-2.33.67-4.67,1-7Z" fill="#d99af0"/><path d="M130.22,4.07c-.07-1-.15-2.05-.22-3.07h11l-.15,1.06Z" fill="#e4a2f4"/><path d="M3.94,42,1,44V36l2-3L5.05,33a35.7,35.7,0,0,0-1.54,5.18A14.06,14.06,0,0,0,3.94,42Z" fill="#c9dffc"/><path d="M299.07,4.8,289,1h11Z" fill="#ebb8f9"/><path d="M308,7l1-6h4Z" fill="#f3c8fc"/><path d="M299.07,4.8,300,1h1l3,5-.15,2.27L299,5Z" fill="#f3c8fc"/><path d="M119.92,2.87,111,1h11Z" fill="#e4a2f4"/><path d="M1,22l4.83,3.26L2.94,26.94,1,25V24c.12-.09.36-.23.35-.28A5.3,5.3,0,0,0,1,23Z" fill="#a9cef5"/><path d="M257,1c-.69,2-1.37,4-2.06,6L255,1Z" fill="#ac52d4"/><path d="M3,33,1,36V30c.32,0,.63,0,1,0C2.29,31,2.63,32,3,33Z" fill="#b5d6fa"/><path d="M1,25l1.94,1.94L1,27Z" fill="#8ec1ec"/><path d="M260,1a6.55,6.55,0,0,1,0,1l-1-1Z" fill="#ac52d4"/><path d="M1,23a5.3,5.3,0,0,1,.35.72c0,.05-.23.19-.35.28Z" fill="#8ec1ec"/><path d="M247.18,78.09c-.16-2-.48-3.59-3.26-2.68-1.31.43-2.86.11-4.3.14L236.88,65h8.63l.51-1.7-8.8-5.48L234,54c.92-1.47,1.54-3.33,2.82-4.34,3.16-2.48,6.62-4.57,9.95-6.81l4.19-1,1.09,1.74c-1.2.68-2.47,2-3.58,1.92-3.75-.4-4.65,1.83-5.59,5.07L247,51c.68,2.37,1.15,5,4.83,4.79L251,49c.71-1.72,1.43-3.43,2.15-5.15L256,46c0,3.29-.33,6.62.11,9.84.2,1.51,1.86,2.82,2.86,4.21l1,5a9.1,9.1,0,0,1-.91,0c-.69-1.27-1.39-2.55-2.54-4.68-1.85,3.45-2.7,5-3.55,6.59q-1.47,5-2.95,10l-1.11,0Z" fill="#ebb8f9"/><path d="M107,87Q103.43,92.51,99.86,98l-2.94-1,0,.08q-3-6.57-5.89-13.16L94,79c.66-.31,1.86-.57,1.9-.94a39.23,39.23,0,0,0,.1-6.41c-.32-4.46,1.31-7.64,5.5-9.49A12.53,12.53,0,0,0,104.13,60L113,58.33l5-.33L114,66c-1.34.43-2.7,1.28-4,1.22-3.89-.17-7.12,3.16-6.44,6.74.26,1.4-.13,2.92-.25,4.72C104.32,81,105.67,84,107,87Z" fill="#9dbf8f"/><path d="M107,87c-1.34-3-2.69-6-3.74-8.33.12-1.8.51-3.32.25-4.72-.68-3.58,2.55-6.91,6.44-6.74,1.32.06,2.68-.79,4-1.22,1.71,2,3,4.7,5.21,5.72,4.75,2.24,9.92,3.6,14.92,5.33-3.62,1.7-7.21,3.49-10.88,5.09-4,1.73-8,3.4-12.11,4.85C109.9,87.4,108.39,87,107,87Z" fill="#accf9d"/><path d="M219,78.9l-3.54-1.21c-.32,2.43,0,5.28-1.11,7.29-2.92,5.15-8.73,5.1-12.83,3.47-5.58-2.21-10.8-2.12-16.38-1.68-2.1.17-4.25-.38-6.32-.6-.29.33-.64.55-.7.82-2.2,10.44-5.53,12.28-15.76,8.65-1.4-.49-2.83-.92-4.24-1.4-7.94-2.69-9.34-7.34-4.33-14.28L156,80c-3,7.4-2.62,9.55,2.36,11.62,1.2.5,2.46.86,3.69,1.28,7.82,2.24,10.19,1.44,11.82-4l.29-1.8L175.3,87l2.95-4.14,13.53,0L196.16,84l10.89,1.91c6.2-.4,4.75-5.13,5-8.88l4.86-3,.9.07,1.13,4C219,78.37,219,78.63,219,78.9Z" fill="#cc85e6"/><path d="M152,78.89c-4.46-.53-6.28-2.91-5.35-7.4a27.9,27.9,0,0,0,.23-4.4c.72-1.68,1.44-3.37,2.15-5.05L151.92,61c3,4.86,6.76,1.81,10.32,1,5-1.14,4.71-5.43,5-8.87L173,57l3,2c0,.67,0,1.35,0,2-.75,5.86-6.36,5.67-9.95,8l-14.94-.62c-.4,2.05-5.49,5.15.92,7.66Z" fill="#cc85e6"/><path d="M70.16,57.17l-12.76,3c.58,1.35,2.11,3.56,2.24,5.85,0,1-2.8,2.12-4.34,3.19L55,69l.09-2.87a3.31,3.31,0,0,1,.88-.15l2.41-1.22-2.43-1.66L50,60l-4-1.08a2.62,2.62,0,0,1,0-.74l-4-6.26-2-5,3-1,1-1h0l5.13-1c.08,6.92.29,7.08,8.9,7L59,52c1.16,4.11,2.82,7.32,8,5C67.9,56.72,69,57,70,57Z" fill="#a9cef5"/><path d="M134.11,77c-5-1.73-10.17-3.09-14.92-5.33-2.16-1-3.5-3.76-5.21-5.72L118,58,118,58l.77-.91,7.24-4,6.06-.18v3.12l-2,1c-2.7.7-5.8.82-8,2.28a9.08,9.08,0,0,0-3.75,6.15c-.1,1.75,2,4.11,3.71,5.35s4.07,1.06,6.08,1.76c7.73,2.68,11,.37,10.79-7.65.07-1,.14-2,.22-2.95l2.75.07-.72,10.86Z" fill="#c27ae0"/><path d="M219,78.1l-1.13-4L220,70l3-.08c-.24,2.24-.48,4.48-.76,7.16,5.31-2.37,6-5.39,2.72-9.11l0-2.21,6.91,1.5c.94,2.89,1.89,5.77,2.83,8.65-2.64,1.5-5.29,3-7.88,4.55-.17.11.15,1,.24,1.58-3.3,4.25-5.56,1.37-7.87-1.15l2.42-1Z" fill="#f0c0fa"/><path d="M259.09,65.06c.31,0,.61,0,.91,0L267,64,269,62c2.77-4.43-.64-7.07-2.9-10l3-2.94,0,3.12c1.08,2.26,3.31,4.67,3,6.75C271,67,270.74,67,262.38,68.15c1,3.34,2.66,6.71,2.84,10.16.07,1.29-3.22,2.76-5,4.14-.1-.56-.19-1.11-.29-1.66,3.39-5.21,2.75-7.59-2.94-10.8l-.24-1.87Z" fill="#cc85e6"/><path d="M26,54c-1.73.89-3.37,2.13-5.2,2.58-2.21.54-6.14,1.24-6.57.42-1.19-2.25-.93-5.26-1.24-8l5.89-3c.37,2.58.74,5.15,1.26,8.8l3.73-9.67L26,46c0,2.41,0,4.81,0,7.22A2,2,0,0,1,26,54Z" fill="#8ec1ec"/><path d="M46,58.19a2.62,2.62,0,0,0,0,.74c.66,2.48-1.61,6.9,4,6.1l-2.87,4.89.85,2a26.6,26.6,0,0,1-5.17-1.28c-5.61-2.66-5.74-6.17-.57-9.94.44-.32.52-1.13.76-1.71Z" fill="#8ec1ec"/><path d="M299.08,64.16c-5.13,1-10.24,2.41-15.39,2.61-2,.07-5.2-2.33-5.88-4.28-1.11-3.2-.61-7-.79-10.48l2.06,2.06c.33,1.77.35,3.67,1.06,5.27s2.06,4.26,3.26,4.34c4.17.26,8.39-.39,12.6-.69l3-.06C299,63.34,299.05,63.75,299.08,64.16Z" fill="#cc85e6"/><path d="M78.76,77.22C75.28,72,72.62,66.51,73.92,59.9A23.62,23.62,0,0,0,74,56c.27-.66.55-1.31.83-2l2.29-2,1,2.73,0,2.57L78.14,59a44.91,44.91,0,0,0-.43,6.31C78,69.22,78.56,73.1,79,77Z" fill="#728f70"/><path d="M18.9,46,13,49c-.74-.92-1.77-2.76-2.18-2.63-4.36,1.38-5.52-1.14-6.11-4.59,0-.07-.28-.16-.4-.13s-.25.19-.38.3a14.06,14.06,0,0,1-.43-3.76A35.7,35.7,0,0,1,5.05,33l3.81,0L9,34c-5.62,3-.69,7.08-2,11.11L18,43l1,.08c0,.64,0,1.29,0,1.94C19,45.33,19,45.66,18.9,46Z" fill="#84bdeb"/><path d="M328.09,24.41c-6.29,5.76-8.52,5.82-18.32.51.56-1.31,1.11-2.62,1.66-3.94,6.89,6.2,7.89,6.34,14.59,2l1.87-.09Z" fill="#d99af0"/><path d="M314,36c-.09,1.52.39,3.5-.39,4.49-3.23,4.11-6.4,8.58-12.47,8.75l-4.24-2.15,3.2-3.12,1.73,0c.77.48,1.76,1.54,2.26,1.35,4.23-1.68,7.85-4,7.91-9.29Z" fill="#d99af0"/><path d="M46,58.19,43,59H40.86c-2.57-.16-5.22-.77-7.71-.37-4.26.69-5.06-1.07-4.19-4.66,1-.72,2.05-1.43,3.08-2.14.37,1,.56,2.79,1.14,2.94,2.92.71,6,1,9.1,1.45L42,51.93Z" fill="#c9dffc"/><path d="M141.11,72.92l.72-10.86.25-.3L144,59l3.82,2,1.24,1c-.71,1.68-1.43,3.37-2.15,5.05Z" fill="#9dbf8f"/><path d="M91.08,83.92Q94,90.51,97,97.08L81.72,80.32,82,80Z" fill="#728f70"/><path d="M279.09,54.07,277,52c-2.76-5.06-5.31.28-8,.16,0-1,0-2.08,0-3.12L271,48,274,46.94l10,3,3,0c.12.72.23,1.44.35,2.16-.12.29-.24.58-.37.86H281l-1,0Z" fill="#c06fe0"/><path d="M322,7l2-1a15.84,15.84,0,0,1,10.44,3c2.29,1.59,6.3.7,9.54.92,0,.42.07.83.1,1.25l-7.31,1.24L335,14,333,12c-2.41-4.81-7.53-2.12-11-4C322,7.67,322,7.33,322,7Z" fill="#b966dd"/><path d="M311.44,21c-.56,1.32-1.11,2.63-1.67,3.94l-.33,2.86-2.28.09c.4-4,2.83-8.5-3.12-10.85-.75-.3-.7-2.63-1-4l3-1c.08,1.07.16,2.13.19,2.51l5.17,1.59C311.4,17.72,311.42,19.35,311.44,21Z" fill="#b966dd"/><path d="M259.94,80.79c.1.55.19,1.1.29,1.66-3.18,4.31-7.92,4.08-12,2.94s-2-4.63-1-7.3L248.94,77v7.17Z" fill="#c27ae0"/><path d="M296.88,47.09l4.24,2.15c1,1.19,2,2.39,2.95,3.58L301.91,56,296,54l-2-5Z" fill="#f8d2fe"/><path d="M234.66,75.92c-.94-2.88-1.89-5.76-2.83-8.65l.21-1.33,2.85-1,2,0,2.74,10.57c-1.06.24-2.11.5-3.16.75Z" fill="#b35cd9"/><path d="M314,36h-2c-4.31-3.6-3.6,2.73-6,3l-2-1c0-1-.05-2-.08-3.06,1-1,1.93-2.05,2.89-3.07l3,.16Z" fill="#cc85e6"/><path d="M301.91,56l2.16-3.14c3.78,5.35,1.88,9.67-5,11.34,0-.41-.05-.82-.07-1.23C299.84,60.55,305.48,60.17,301.91,56Z" fill="#d99af0"/><path d="M29,54c-.87,3.59-.07,5.35,4.19,4.66,2.49-.4,5.14.21,7.71.37-3.32.61-6.65,1.8-9.95,1.69-3.76-.13-5-3.19-4.89-6.71L26,54l1.47,0Z" fill="#8ec1ec"/><path d="M152,78.89c0-1,0-1.9,0-2.85,2.21-.72,4.4-1.54,6.65-2.1A13.1,13.1,0,0,1,162,74l-6,6L153.82,80Z" fill="#c06fe0"/><path d="M234.66,75.92l1.8.38c-1.52,4.58-4.91,6.1-9.44,5.75-.09-.55-.41-1.47-.24-1.58C229.37,78.89,232,77.42,234.66,75.92Z" fill="#c27ae0"/><path d="M333,12,335,14a6.6,6.6,0,0,0,.77,0l-6.23,8.44-.62-.51c.7-1.63,1.41-3.27,2.12-4.9Z" fill="#cc85e6"/><path d="M344.07,11.13c0-.42-.07-.83-.1-1.25.34-2.61.67-5.21,1-7.81C349.27,3.94,348.94,7.23,344.07,11.13Z" fill="#c27ae0"/><path d="M48,71.93l-.85-2L55,69l.33.29Z" fill="#a9cef5"/><path d="M96.92,97l2.94,1c.18,1.19.36,2.38.74,4.84Z" fill="#728f70"/><path d="M309.88,32.05l-3-.16c.1-1.34.19-2.68.28-4l2.28-.09C309.59,29.2,309.73,30.63,309.88,32.05Z" fill="#d99af0"/><path d="M74.86,54c-.28.65-.56,1.3-.83,2l-3.87,1.22L70,57l2-3h2.85Z" fill="#a9cef5"/><path d="M219,78.1l2.6,1.77-2.42,1c0-.67-.08-1.33-.13-2C219,78.63,219,78.37,219,78.1Z" fill="#d28bed"/><path d="M81.72,80.32l-3-3.1L79,77l3,3Z" fill="#728f70"/><path d="M335.73,14a6.6,6.6,0,0,1-.77,0l1.8-1.58C336.41,12.9,336.07,13.44,335.73,14Z" fill="#c27ae0"/><path d="M328.09,24.41c-.07-.49-.13-1-.19-1.49l1-1,.62.51Z" fill="#cc85e6"/><path d="M170.88,15.71a7.53,7.53,0,0,1,.11-.83c6.33,1,12.68,1.95,19,3.12,1.07.2,2.65,1.29,2.77,2.14A4.84,4.84,0,0,1,191.46,24c-2.65,2.19-5.64,3.94-8.5,5.87L181,31,179,32l-1.11.84L176,34l-1.87.42-1.06-.24c-.25-1.23-1.12-2.84-.64-3.64C175.69,25.09,172.47,20.51,170.88,15.71Z" fill="#eeb4fb"/><path d="M220,9l6-2L228,9,222,17.91l-1-.07c-2.63-1.72-9.25,0-11.91,3.15-4.34-.32-8.64-.71-9.73-6.16L208,8.94C207.77,13.53,211,13,214,13S220.23,13.69,220,9Z" fill="#cc85e6"/><path d="M202.9,24,222,20c.27,1,.53,1.91.79,2.87l-3.92,8c-2.65,3.45-5.7,3.85-9.34,1.45a19.32,19.32,0,0,0-4.08-1.54L202.68,26C202.75,25.31,202.83,24.63,202.9,24Z" fill="#eeb4fb"/><path d="M183.9,31.05a40.54,40.54,0,0,0,5-2.06c6.41-3.69,8.67-3.13,12.5,3.06.38.62,1.71.65,2.6,1l1.1,1.12c0,2.1.11,4.23-3,4.09l-3-.35L196,36l-12-1.21C184,33.53,183.93,32.29,183.9,31.05Z" fill="#a450cb"/><path d="M177,11c-.34-2-.68-4-1-6,3.55.68,7.14,1.21,10.63,2.1,1.19.31,2.15,1.54,3.21,2.34-1,.85-2,2.4-3.08,2.41A91.66,91.66,0,0,1,177,11Z" fill="#b966dd"/><path d="M222.79,22.9c-.26-1-.52-1.91-.79-2.87,0-.7,0-1.41-.05-2.12L228,9a4.05,4.05,0,0,1,.92-.1c.56.55,1.49,1,1.62,1.68a51.58,51.58,0,0,1,.47,5.74c-3.08.34-6.42,1.54-5,6.6Z" fill="#b966dd"/><path d="M205.09,34.12,204,33c.49-.74,1-1.48,1.46-2.21a18.77,18.77,0,0,1,4.08,1.53c3.64,2.4,6.69,2,9.34-1.45L222,35.94c-2.33-2.76-4.51-.69-6.72.23l-2.46-.09Z" fill="#b966dd"/><path d="M183.9,31.05c0,1.24.06,2.48.1,3.72l-5.1,2-1.88.25L176,36.69,176,34l1.94-1.09,1.56,1.49L179,32,181,31l2,.05Z" fill="#b966dd"/><path d="M209,21c2.66-3.13,9.28-4.87,11.91-3.15Z" fill="#d28bed"/><path d="M202.9,24c-.07.67-.15,1.35-.22,2-4.08-.16-4.08-.16-4.21-4Z" fill="#a450cb"/><path d="M183,31,181,31l2-1.09Z" fill="#a450cb"/><path d="M243.73,30.06c.22,1,.45,2,.67,3-3.93,4.4-9.15,4.19-14.36,4L228.32,36c-.24-1.36-.47-2.72-.7-4.08l0-8.89.48,0,2-.11L232.92,21l1.14,0Z" fill="#eeb4fb"/><path d="M227.65,23c0,3,0,5.93,0,8.89l-2.61,3-3,1-3.15-5.07,3.92-8,3.25,0Z" fill="#a450cb"/><path d="M252.93,8.91c-2.32,5.76-6.27,7.38-12.65,5L247,11Z" fill="#ac52d4"/><path d="M252.93,8.91,247,11l-3.89-3.6.44-1.5,9.36,2L253,9Z" fill="#e4a2f4"/><path d="M246,28l-1.14.05-4.05-4.89,1.84-1.34Z" fill="#ac52d4"/><path d="M234.06,21l-1.14,0c-.59-.68-1.19-1.35-1.79-2l1-.84Z" fill="#e9aef9"/><path d="M230.11,22.94l-2,.11c.21-.53.41-1.06.62-1.58Z" fill="#e9aef9"/><path d="M253,9l0-1.06,2.07,0c0,.35,0,.7,0,1Z" fill="#ac52d4"/><path d="M270.63,9.11c-.27,1-.54,1.93-.8,2.9l-3.4.37c.21,1.74.39,3.19.57,4.64l-2,3v2c-4.85.79-3.84,4.64-4.09,7.83L254,27.9,253,27c1.14-4.88,1.67-10,3.55-14.6C259.2,5.91,261.85,5.58,270.63,9.11Z" fill="#eeb4fb"/><path d="M230,37.11c5.21.15,10.43.36,14.36-4l11.67.94c-.93,1.37-1.87,2.73-2.77,4.12-.79,1.23-1.53,2.49-2.3,3.74l-4.19,1-5.79-1-9.27,1L229,43l-.93-.43L226,41.11l-2.14-1.24Z" fill="#a450cb"/><path d="M251,41.87c.77-1.25,1.51-2.51,2.3-3.74.9-1.39,1.84-2.75,2.77-4.12H257c.49,3.33,2.6,3.25,5.08,2.43,3.57-1.18,6.09-.29,7.11,3.59-.36,3.66,1.67,5.67,4.81,6.91L271,48c-1.53-2.45-3.35-4.77-4.51-7.39-1.35-3-2.58-3.67-4.85-.93-1.78,2.15-3.71,4.18-5.57,6.26l-2.89-2.11-1-.23Z" fill="#b966dd"/><path d="M267,17c-.18-1.45-.36-2.9-.57-4.64l3.4-.37,7.27,5.76L276.05,21l-.21.2L268,24.93,265,22V20l3.56-.85Z" fill="#ebb8f9"/><path d="M269.21,40c-1-3.88-3.54-4.77-7.11-3.59-2.48.82-4.59.9-5.08-2.43l14-6c-.86,1.33-2,2.57-2.44,4-.22.8.87,2,1.36,3C269.73,36.66,269.47,38.34,269.21,40Z" fill="#d99af0"/><path d="M270,35c-.49-1-1.58-2.17-1.36-3,.4-1.46,1.58-2.7,2.44-4l5-4,3.07,2a2.64,2.64,0,0,0-.19.82l-2.09,2.07c-2.9,0-5.29.68-5.74,4.08Z" fill="#b966dd"/><path d="M265,22l3,2.95-7.08,4.89C261.16,26.62,260.15,22.77,265,22Z" fill="#d99af0"/><path d="M279.11,26,276,24c-.07-.95-.14-1.9-.2-2.84l.21-.2,5,0,1.83,5Z" fill="#ebb8f9"/><path d="M253,27l1.05.89Z" fill="#d99af0"/><path d="M170.88,15.71c1.59,4.8,4.81,9.38,1.54,14.79-.48.8.39,2.41.64,3.64a31.32,31.32,0,0,1-4.19.36,45.68,45.68,0,0,1-4.89-.7L158,36c-2.78,0-7.14,3.87-7-3l5.44,2.29c0-2.88.74-5.48-.23-7-.76-1.19-3.61-1.07-6.11-1.67.39,2.84.63,4.6.88,6.37-4.83-2.34-4.83-2.4-1.47-11.28l-3.57-5.9,1.08-.79,6.16,2.86c2.11,2.69,4.21,5.4,6.34,8.09,1,1.26,2,2.48,3.07,3.71L165.11,25,170,15.84A6.44,6.44,0,0,1,170.88,15.71Z" fill="#f3c8fc"/><path d="M130.22,4.07l10.63-2c3.61,1.25,4.18,4.15,2.21,6.62-3.32,4.17-7.38,7.76-11.13,11.59l-4.66-3.79c-.76-2.15-1.51-4.32-2.27-6.48l1-2.82Z" fill="#f0c0fa"/><path d="M127.27,16.48l4.66,3.79,5.91.8L139,22l2.29,2c-.09,1.66-.17,3.33-.25,5l-8.24-.9c-2.83-1.79-5-.84-6.91,1.58l-5.64-4.05A.81.81,0,0,0,120,25l.2-3.75,2.12-3Z" fill="#a450cb"/><path d="M141,29c.08-1.66.16-3.33.25-5l4.64-8.17,3.57,5.9c-3.36,8.88-3.36,8.94,1.47,11.28h0c-.11,6.83,4.25,3,7,3,0,1-.06,2-.08,3a6.62,6.62,0,0,0-.89,0L146,40.12c-3.48-.62-4.05-3.15-4-6.1L140.71,32Z" fill="#eeb4fb"/><path d="M170,15.84,165.11,25C162.89,19.74,164.27,17.16,170,15.84Z" fill="#eeb4fb"/><path d="M139,22l-1.14-1c.86-1.71,1.73-3.42,2.59-5.14l1.69.93Z" fill="#d99af0"/><path d="M153.15,17.92,147,15.06C150.42,13.05,151.52,16,153.15,17.92Z" fill="#eeb4fb"/><path d="M287,3.12l11.86,3.35c1.72,4.8.65,6-5.85,6.58l-7-.49Z" fill="#ebb8f9"/><path d="M286,12.56l7,.49,0,1.81c-3,1.11-9.21-2.7-7.88,5.1l.06,4.1L284,28.84,282.84,26,281,21c0-.67-.06-1.34-.08-2,.28-.67.57-1.34.85-2Q283.88,14.77,286,12.56Z" fill="#b35cd9"/><path d="M281.78,17c-.28.68-.57,1.35-.85,2l-2.06-.07c.07-.64.15-1.29.22-1.93Z" fill="#ebb8f9"/><path d="M8.11,9H12l10.17,2c.05.7.09,1.39.13,2.09-.54,2.41-.95,4.86-1.67,7.22C20,22.4,19,24.39,18.21,26.42l-1.4-3C15.59,28.82,11.67,26.69,8.9,27c-.28-.64-.57-1.29-.85-1.94,6.84-3.19,7.62-8.92,1.9-13.51A11.32,11.32,0,0,1,8.11,9Z" fill="#559cd1"/><path d="M8.9,27c2.77-.35,6.69,1.78,7.91-3.64.47,1,.93,2,1.4,3a1,1,0,0,0-.06.14L17,29.08c-2.11,3.46-1,6.48,3.18,8.91,2.67,1.57,5.25,3.3,7.87,5L26,46l0,0-2.14-.9-1-1-2-1a4.5,4.5,0,0,0-.82,0L19,43.07,18,43c.41-3.37-1.27-5-4.37-6C12,36.44,10.52,35,9,34c0-.35-.07-.7-.1-1.05-2.38-.9-2.17-2.74-1.69-4.67Z" fill="#63a6dc"/><path d="M8.11,9A11.32,11.32,0,0,0,10,11.59c5.72,4.59,4.94,10.32-1.9,13.51.15-2.42.42-4.84.39-7.26a41,41,0,0,0-.68-5.38c-.18-1.21-.43-2.41-.64-3.62A5.49,5.49,0,0,0,8.11,9Z" fill="#b5d6fa"/><path d="M7.18,28.3C6.7,30.23,6.49,32.07,8.87,33L5.05,33,3,33c-.35-1-.69-2-1-3Z" fill="#8ec1ec"/><path d="M120,25a.82.82,0,0,1,.25.7c-.42,1.06-.83,2.12-1.25,3.19L113.1,30.9l0,.07-1-1.07-1.85,1.25c-2.51-2.25-4.72-5.14-7.63-6.51-2.12-1-5.72-2.51-7.54,1.41l-7.88,0V25l7.63-4.92,4.22,0,7.17,2.19V10.1a18.76,18.76,0,0,0,14-6L120,4l6,3.16L125,10l-3,0-8,6-4.89,4.36c1.41,1.41,2.58,3.42,4.27,4.08C115.33,25.26,117.75,24.85,120,25Z" fill="#e9aef9"/><path d="M87.1,25c0,.35,0,.71,0,1.06,1,4.33-3.26,9,.88,13.12l5,2.73L105,41l2-1.08,1.91,0L111,42l-10.35,9.16c-.26-1.39-.51-2.78-.76-4.17-.59-.69-1.06-1.81-1.78-2-3-.8-6-1.31-9.05-1.93l-3-.13-1-2-1.86-3L83,35l.09-5.09,3-5Z" fill="#c27ae0"/><path d="M86.08,25q-1.48,2.49-3,5l-6.24,1L76,30l1.93-2.26L72.47,24.1l4.61-4.92,1.8-.15c1.15,2.7,2.81,4.63,6.13,4Z" fill="#84bdeb"/><path d="M106.12,10.1V22.34L99,20.15c0-2.67.07-5.34.11-8L103,10l2-.94Z" fill="#a450cb"/><path d="M85,23c-3.32.65-5-1.28-6.13-4,.36-1.67.71-3.33,1.07-5L79,13c0-.34,0-.68,0-1s0-.71,0-1.06l3.93-1.12c.45.76.89,1.52,1.34,2.27L85,21C85,21.66,85,22.33,85,23Z" fill="#c27ae0"/><path d="M90.07,8.8,93.4,9l-.48,6-5.08,1.2C88.58,13.7,89.33,11.25,90.07,8.8Z" fill="#fbedfe"/><path d="M99.06,12.14c0,2.67-.07,5.34-.11,8l-4.22,0,1.4-6.81Z" fill="#b35cd9"/><path d="M18.15,26.55s.06-.14.06-.13c.83-2,1.8-4,2.43-6.11.72-2.36,1.13-4.81,1.67-7.22L29,16h0l1,1v0l3,4,2.27,3c-.07.31-.13.63-.2,1l-1.59,1.2L35,27a6.24,6.24,0,0,1,0,1H30l-9.21.05Z" fill="#c9dffc"/><path d="M35.21,24.06l-2.27-3c1.62-3.25-1-3.44-3-4v0l-1-1h0l.24-5.13L32,13,38,14c0,.31,0,.61,0,.92-.75,1.75-1.5,3.5-2.61,6.07H42Z" fill="#b5d6fa"/><path d="M32,13l-2.77-2.06C27.21,8.6,23.57,7,26,2.9c4.09-.62,4.41,2.33,4.87,5.15C31.24,9.68,31.61,11.32,32,13Z" fill="#559cd1"/><path d="M106.12,10.1l-1.06-1,10.78-4,4.23-1A18.73,18.73,0,0,1,106.12,10.1Z" fill="#c576e7"/><path d="M84.28,12.1c-.45-.75-.89-1.51-1.34-2.27.7-1.89,1.39-3.77,2.08-5.66,3.1-.38,3.58,1.29,2.47,3.57A27.78,27.78,0,0,1,84.28,12.1Z" fill="#cc85e6"/><path d="M77.08,19.18,72.47,24.1l5.46,3.61L76,30c-8.65,2.13-9.91,3.5-10.07,11-2.12-.47-4.59-.69-3-4,.17-3.77.33-7.53.51-11.72C57.68,27.5,54.84,23.15,51,22l13-4.71V12l1.23-.14A2.61,2.61,0,0,1,66,12c1,2.31,2,4.62,2.56,5.81Z" fill="#b5d6fa"/><path d="M63.93,12v5.23L51,22l-3-3,2.78-5.25-2.4-4.43L49.92,9c2.4,3.14,5,4.89,8.19,1L59,8.88Z" fill="#559cd1"/><path d="M77.08,19.18l-8.52-1.39C68,16.6,67,14.29,66,12a16,16,0,0,0,13,1.91A3.76,3.76,0,0,0,80,14c-.36,1.66-.71,3.32-1.07,5Z" fill="#c9dffc"/><path d="M80,14a3.76,3.76,0,0,1-.94-.15c0-.29,0-.58,0-.86Z" fill="#cc85e6"/><path d="M328.88,21.9l-1,1L326,23c-4.3-3.54-8.77-6.71-14.63-6.93l-5.17-1.59c0-.38-.11-1.44-.19-2.51,0-.63,0-1.26,0-1.9s0-1.39,0-2.08l2,0c.92,1.07,1.82,2.15,2.75,3.21,1.82,2.08,3.61,2.73,5.27-.17l1,0,2,4c3.31,3.38,6.28,1.85,9.37-.77L331,17C330.29,18.63,329.58,20.27,328.88,21.9Z" fill="#e9aef9"/><path d="M278.87,18.91l2.06.07c0,.67.05,1.34.08,2l-5,0,1.05-3.18Z" fill="#f3c8fc"/><path d="M38,14.94c0-.31,0-.61,0-.92.34-3.32.67-6.65,1-10l7.12,3.73L46,19l-2.85,1.12-1-4.87Z" fill="#c9dffc"/><path d="M39,4.05c-.34,3.32-.67,6.65-1,10L32,13c-.37-1.63-.74-3.27-1.12-4.9l5-4Z" fill="#a9cef5"/><path d="M46,19l.15-11.21,2.17,1.5c.82,1.53,1.66,3.07,2.39,4.43L47.93,19Z" fill="#b5d6fa"/><path d="M319,15l-2-4q2.49-2,5-4c0,.34,0,.68,0,1C324.67,12.9,324.23,13.92,319,15Z" fill="#cc85e6"/><path d="M321,3l-.23.41L321,3Z" fill="#d28bed"/><path d="M306,8c0,.69,0,1.39,0,2.08L303.83,8.3,304,6Z" fill="#f8d2fe"/><path d="M303.83,8.3,306,10.08c0,.64,0,1.27,0,1.9l-3,1a19.82,19.82,0,0,0-2.79.17c-2.44.5-4.86,1.11-7.28,1.68l0-1.81c6.5-.58,7.57-1.78,5.85-6.58.06-.49.12-1,.17-1.47Z" fill="#c27ae0"/><path d="M256,46c1.86-2.08,3.79-4.11,5.57-6.26,2.27-2.74,3.5-2.11,4.85.93,1.16,2.62,3,4.94,4.51,7.39l-1.93,1L266,52l-4,5-3,3c-1-1.39-2.66-2.7-2.86-4.21C255.7,52.57,256,49.24,256,46Z" fill="#e4a2f4"/><path d="M259.94,80.79l-11,3.4V77l1.1,0,7-7C262.69,73.2,263.33,75.58,259.94,80.79Z" fill="#f0c0fa"/><path d="M234,54l3.18,3.82c-.43.92-.87,1.84-1.31,2.77l-8.77.55c-.7-.7-1.39-1.41-2.08-2.11.31-.67.63-1.33.95-2h0l1-1,3.8-2.13Z" fill="#a450cb"/><path d="M234,54l-3.23-.13c2.48-3,4.94-6,7.43-8.93.88-1.05,1.85-2,2.78-3.06l5.79,1c-3.33,2.24-6.79,4.33-9.95,6.81C235.58,50.65,235,52.51,234,54Z" fill="#b966dd"/><path d="M259,60l3-3,5,5v2L260,65C259.67,63.34,259.33,61.67,259,60Z" fill="#e9aef9"/><path d="M235.91,60.56c.44-.92.88-1.84,1.31-2.76l8.8,5.48-.51,1.7h-8.63l-2,0,3.24-3.7Z" fill="#c06fe0"/><path d="M257,70l-7,7q1.49-5,3-10l3.76,1.16Z" fill="#fbedfe"/><path d="M252.09,43.61l1,.23c-.72,1.72-1.44,3.43-2.15,5.15l-4,2-4.07-.44c.94-3.24,1.84-5.47,5.59-5.07C249.62,45.64,250.89,44.29,252.09,43.61Z" fill="#fbedfe"/><path d="M247,51l4-2,.83,6.84C248.14,56,247.67,53.41,247,51Z" fill="#f8d2fe"/><path d="M256.76,68.12,253,67c.85-1.57,1.7-3.14,3.55-6.59,1.15,2.13,1.85,3.41,2.54,4.68C258.32,66.08,257.54,67.1,256.76,68.12Z" fill="#f0c0fa"/><path d="M82,80l-3-3c-.45-3.89-1-7.77-1.3-11.68A44.91,44.91,0,0,1,78.14,59q1.41,3,2.84,6a26.36,26.36,0,0,0,5.25,0,58.7,58.7,0,0,0,6.77-2L94,79q-1.48,2.48-3,5Z" fill="#82a581"/><path d="M99.9,47c.25,1.39.5,2.78.76,4.17,1,4.43,3.84,6.28,8.34,6.11,1.32-.05,2.67.68,4,1L104.13,60,93.86,62a18.58,18.58,0,0,1-1.79-2.76c-.74-1.71-1.28-3.5-1.91-5.26C90.45,47.57,96.13,48.62,99.9,47Z" fill="#82a581"/><path d="M113,58.33c-1.34-.37-2.69-1.1-4-1-4.5.17-7.31-1.68-8.34-6.11L111,42h1c-.67,6.18.27,11.72,6.15,15.26A3.42,3.42,0,0,1,118,58l.06,0Z" fill="#e4a2f4"/><path d="M93.86,62l10.27-2a12.53,12.53,0,0,1-2.61,2.11c-4.19,1.85-5.82,5-5.5,9.49a39.23,39.23,0,0,1-.1,6.41c0,.37-1.24.63-1.9.94L93,63.1C93.29,62.75,93.57,62.39,93.86,62Z" fill="#728f70"/><path d="M223,69.93,220,70l-3.06,4-4.86,3-2-7.09a11.17,11.17,0,0,0-2.85-.26c-1.76.3-3.47.86-5.2,1.31l3.66-2.83a8.38,8.38,0,0,0-6,.22A41.75,41.75,0,0,0,194.07,72c-1.12-1.37-2.23-2.75-3.77-4.65-2.06,3.76-6.46,5.11-4.8,9.9.14.39-2.21,2-3.59,2.44-1.13.32-2.55-.38-3.84-.64,0-2.54.23-5.17-3-6h-3V72c2-2,3.95-4,5.93-6,4.92,4.59,7.14-.2,10-2.87A60.1,60.1,0,0,1,196,65.53c3.11,1.42,5.67,1.46,7.91-1.35l6.06-.24c1.2.83,3.3,2.54,3.49,2.35,3.75-3.74,7.58-2.64,11.5-.52L225,68Z" fill="#d28bed"/><path d="M172,72v1a10.63,10.63,0,0,1-1.65,2.88c-2.52,2.25-4.08,4.46-1.75,7.87.44.63-.38,2.13-.61,3.23l-.93.08-5,5.85c-1.23-.42-2.49-.78-3.69-1.28-5-2.07-5.4-4.22-2.36-11.62l6-6,2-.06.87,0L166,73Z" fill="#e4a2f4"/><path d="M202,71c1.73-.45,3.44-1,5.2-1.31a11.17,11.17,0,0,1,2.85.26c.54,5.61-6.16,7.28-6.91,10.88l3.9,5.09L196.16,84c-3.78-4.7-3.66-6.57,1.08-10.51C198.59,72.35,200.41,71.78,202,71Z" fill="#e9aef9"/><path d="M178.07,79.06c1.29.25,2.71,1,3.84.63,1.38-.39,3.73-2,3.59-2.44-1.66-4.79,2.74-6.14,4.8-9.9,1.54,1.9,2.65,3.28,3.77,4.65q-1.14,5.44-2.29,10.87l-13.54,0C178.19,81.59,178.13,80.32,178.07,79.06Z" fill="#e9aef9"/><path d="M207.05,85.89l-3.9-5.09c.75-3.6,7.45-5.27,6.91-10.88l2,7.09C211.8,80.76,213.25,85.49,207.05,85.89Z" fill="#f3c8fc"/><path d="M168,87c.23-1.1,1-2.6.61-3.23-2.33-3.41-.77-5.62,1.75-7.87A10.63,10.63,0,0,0,172,73H173c.37.66.74,1.32,1.1,2q.63,6,1.25,12l-1.13.14c-.78-1.1-1.56-2.21-2.34-3.3Z" fill="#f0c0fa"/><path d="M191.78,82.87q1.14-5.43,2.29-10.87a41.75,41.75,0,0,1,5.62-3.64,8.38,8.38,0,0,1,6-.22L202,71c-1.6.81-3.42,1.38-4.77,2.5-4.74,3.94-4.86,5.81-1.08,10.51Z" fill="#b966dd"/><path d="M162.06,92.91l5-5.85c.93,5.52,4.13,2.78,6.82,1.87C172.25,94.35,169.88,95.15,162.06,92.91Z" fill="#f0c0fa"/><path d="M175.3,87q-.63-6-1.25-12l1-2c3.28.87,3.08,3.5,3,6,.06,1.27.12,2.54.17,3.8Z" fill="#b966dd"/><path d="M173.88,88.93c-2.69.91-5.89,3.65-6.82-1.87L168,87l3.84-3.15c.78,1.09,1.56,2.2,2.34,3.3C174.08,87.73,174,88.33,173.88,88.93Z" fill="#fbedfe"/><path d="M216.94,74,220,70l-2.16,4.08Z" fill="#ebb8f9"/><path d="M164,33.8a45.68,45.68,0,0,0,4.89.7,31.32,31.32,0,0,0,4.19-.36l1.06.23c0,.87-.08,1.73-.11,2.6-.4.6-.79,1.21-1.19,1.82l-.09,0q-1.78,4.06-3.56,8.13L173,57l-5.72-3.88c-.3,3.44,0,7.73-5,8.87-3.56.81-7.32,3.86-10.32-1q0-.49.06-1c10.71-.15,14.48-3.46,12.76-11.56-.45-2.15-2-4.08-3-6.11,3.12.77,5.28-.06,4.93-3.07Z" fill="#c06fe0"/><path d="M173,57c-1.27-3.35-2.53-6.7-3.81-10.05,2.06.41,4.13,1.15,6.18,1.1,1.25,0,2.47-1.26,3.71-2l6.9,2c.28,1.87.55,3.74.83,5.56L190,54.74l-3.27,4C183.1,57,179.56,59,176,59Z" fill="#e9aef9"/><path d="M176,59c3.58,0,7.12-2,10.75-.23,4.48,2,9.44-.7,9-5l1.07-1c.76.79,1.53,1.57,2.3,2.35l-2.29,6.37,7,2.7C201.63,67,199.07,67,196,65.53a60.1,60.1,0,0,0-8.06-2.44l-8.77,1L176,61Z" fill="#b35cd9"/><path d="M164.07,74,162,74a13.1,13.1,0,0,0-3.36-.07c-2.25.56-4.44,1.38-6.65,2.1-6.41-2.51-1.32-5.61-.92-7.66l14.94.62Z" fill="#d99af0"/><path d="M164.07,74l2-5c3.59-2.33,9.2-2.14,9.95-8l3.13,3.1L177.93,66c-2,2-4,4-5.93,6L166,73l-1.06,1Z" fill="#c06fe0"/><path d="M152,60q0,.49-.06,1L149.05,62l-1.23-1L150,60Z" fill="#e9aef9"/><path d="M63,37c-1.63,3.28.84,3.5,3,4,.33,1.35.66,2.7,1,4l-6.85-1c-3.67-2.31-7.33-2.11-11,0L44,45l.92-1.08c3.06-1.45,4-3.42,2.07-6.59-.74-1.21-.68-2.9-1-4.38,1.32,1.14,3.15,2,3.87,3.47,1.86,3.72,4.34,3,7.14,1.62Z" fill="#8ec1ec"/><path d="M49.09,44c3.66-2.12,7.32-2.32,11,0-.66,1.68-1.33,3.35-2,5L58,51C49.38,51.08,49.17,50.92,49.09,44Z" fill="#559cd1"/><path d="M42,51.93l.27,4.28c-3.15-.46-6.18-.74-9.1-1.45-.58-.15-.77-1.92-1.14-2.94l5.75-6.06L40,47Z" fill="#b5d6fa"/><path d="M58,51c0-.64.07-1.29.1-1.93l12-1L73,54H72L59,52Z" fill="#8ec1ec"/><path d="M40,47l-2.19-1.22L36,44a31.25,31.25,0,0,1-1.24-5.7c-.13-3.42.14-6.86.24-10.3h0l3,0a19.91,19.91,0,0,0,.06,4.44c1,4.52-.35,10.57,6.8,11.49L44,45h0l-1,1Z" fill="#c9dffc"/><path d="M59,52l13,2-2,3c-1,0-2.1-.28-2.93.08C61.84,59.36,60.18,56.15,59,52Z" fill="#b5d6fa"/><path d="M55,69l-7.86,1Q48.54,67.48,50,65c0-.32,0-.64,0-1l5.09,2Z" fill="#c9dffc"/><path d="M55.06,66.1l-5.09-2c-4-1.39-.7-2.72,0-4.06l5.92,3.06c0,1,0,1.92,0,2.88A3.31,3.31,0,0,0,55.06,66.1Z" fill="#fbedfe"/><path d="M50,60c-.73,1.34-4.06,2.67,0,4.06,0,.32,0,.64,0,1-5.63.8-3.36-3.62-4-6.1Z" fill="#b5d6fa"/><path d="M55.94,66c0-1,0-1.92,0-2.88l2.43,1.66Z" fill="#c9dffc"/><path d="M43,46l1-1Z" fill="#8ec1ec"/><path d="M119,28.84c.42-1.07.83-2.13,1.25-3.19l5.64,4L131,37q0,5,5,5l0,3c-.32,1.35-.64,2.7-1,4,1.23,2,2.2,4.23,3.76,5.92,1.12,1.21,3.49,1.61.32,3.06-2.94,1.45-5-.17-7.07-2,0-1,0-2.08,0-3.12-.47-1.6-.45-3.71-1.49-4.71-3.45-3.3-7.28-6.19-11.21-9.44.43-.18.19-.15.14,0A8.42,8.42,0,0,0,119,40.1c-1.3,5.44,1.5,9.27,5,12.83-8.88.27-9.12,0-9-9L115,39a59.72,59.72,0,0,0,3.53-6.14C119.08,31.7,118.87,30.19,119,28.84Z" fill="#e4a2f4"/><path d="M138.86,64.94c.24,8-3.06,10.33-10.79,7.65-2-.7-4.47-.6-6.08-1.76s-3.81-3.6-3.71-5.35A9.08,9.08,0,0,1,122,59.33c2.2-1.46,5.3-1.58,8-2.28l-3.06,6,7.34,4.43Z" fill="#e4a2f4"/><path d="M124,52.93c-3.52-3.56-6.32-7.39-5-12.83a8.42,8.42,0,0,1,.47-1.36c.05-.1.29-.13-.14,0,3.93,3.25,7.76,6.14,11.21,9.44,1,1,1,3.11,1.49,4.71l-6.06.18Z" fill="#f0c0fa"/><path d="M138.86,64.94l-4.55,2.55L127,63.06l3.06-6,2-1c2,1.79,4.14,3.41,7.08,2,0,1.32,0,2.65,0,4C139,63,138.93,64,138.86,64.94Z" fill="#f0c0fa"/><path d="M139.08,62c0-1.32,0-2.65,0-4,3.17-1.45.8-1.85-.32-3.06-1.56-1.69-2.53-3.92-3.76-5.93l5-2a8.29,8.29,0,0,1,1,0c-.07,4.59.61,8.73,6.11,9.86L150,60l-2.18,1L144,59l-1.91,2.76-.25.3Z" fill="#c06fe0"/><path d="M124,52.93l1.95.19-7.24,4a4,4,0,0,0-.58.13c-5.88-3.54-6.82-9.08-6.15-15.26l1-3,0,0,2,0L115,44C114.92,53,115.16,53.2,124,52.93Z" fill="#c576e7"/><path d="M118.17,57.26a4,4,0,0,1,.58-.13L118,58A3.42,3.42,0,0,0,118.17,57.26Z" fill="#9dbf8f"/><path d="M224.92,65.77c-3.92-2.12-7.75-3.22-11.5.52-.19.19-2.29-1.52-3.49-2.35h0l2-.92c-.4-2.83,1.22-2.63,3.09-2.06,1.89-.69,3.77-1.38,5.67-2.06l4.37.11c.69.7,1.38,1.41,2.08,2.11L231,65l1.05,1v0l-.21,1.33Z" fill="#c06fe0"/><path d="M223,69.93l2-2c3.23,3.72,2.59,6.74-2.72,9.11C222.51,74.41,222.75,72.17,223,69.93Z" fill="#ebb8f9"/><path d="M267,62l-5-5,4-5c2.27,3,5.68,5.62,2.91,10Z" fill="#d99af0"/><path d="M267,62,269,62,267,64Z" fill="#ebb8f9"/><path d="M36,44l1.79,1.76L32,51.82C31,52.53,30,53.24,29,54l-1.52,0L26,53.23c0-2.41,0-4.81,0-7.22l0,0,2.09-1,2-1.3Z" fill="#559cd1"/><path d="M20.09,43.14a5.61,5.61,0,0,1,.82,0l2,1,1,1c-1.07,2.76-2.13,5.52-3.73,9.67-.52-3.65-.89-6.22-1.26-8.8.05-.32.08-.65.1-1C19.37,44.39,19.73,43.76,20.09,43.14Z" fill="#b5d6fa"/><path d="M281,53H287l1,2.12,2,1.9h3l3,6c-4.21.3-8.43.95-12.6.69-1.2-.08-2.52-2.67-3.26-4.34s-.73-3.5-1.06-5.27L280,53Z" fill="#d99af0"/><path d="M296,63l-3-6,3-3,5.91,2c3.57,4.21-2.07,4.59-2.9,7Z" fill="#e4a2f4"/><path d="M73,54,70,48c0-.54,0-1.07,0-1.61L72.89,45l2.75-.66-.07-.79L73,43l2-2,3.86,4.95L77.15,52l-2.29,2Z" fill="#b5d6fa"/><path d="M77.15,52c.59-2,1.17-4.07,1.75-6.1a2.42,2.42,0,0,0,.2-.79L83,43c1,.36,2.16,3.81,3-.11l3,.12q-2,3.42-4.1,6.82c-1.77,2-5.75,2-5.1,6a3.18,3.18,0,0,1-.68.15l-1-1.28Z" fill="#63a6dc"/><path d="M79.19,56a3.18,3.18,0,0,0,.68-.15l.32.24c.4,2.83.8,5.65,1.19,8.48L81,65q-1.42-3-2.84-6c0-.56,0-1.11.08-1.67Z" fill="#b5d6fa"/><path d="M79.19,56l-1,1.29,0-2.56C78.52,55.19,78.85,55.62,79.19,56Z" fill="#82a581"/><path d="M9,34c1.55,1,3,2.42,4.69,3,3.1,1,4.78,2.63,4.37,6L7,45.13C8.28,41.1,3.35,37.07,9,34Z" fill="#8ec1ec"/><path d="M20.09,43.14c-.36.62-.72,1.25-1.09,1.87,0-.65,0-1.3,0-1.94Z" fill="#8ec1ec"/><path d="M311.39,16.08c5.86.22,10.33,3.39,14.63,6.93-6.7,4.31-7.7,4.17-14.59-2C311.42,19.35,311.4,17.72,311.39,16.08Z" fill="#f3c8fc"/><path d="M304.08,38,306,39,301.81,44l-1.73,0c-2.83-3.31-6.24-3.42-10-1.83-.38-2.06-.75-4.11-1.12-6.17L294,37l1.71,2.61L297,38Z" fill="#d28bed"/><path d="M290.11,42.14c3.73-1.59,7.14-1.48,10,1.83l-3.2,3.12L294,49l-3.89-2C290.12,45.39,290.11,43.77,290.11,42.14Z" fill="#ebb8f9"/><path d="M301.81,44,306,39c2.35-.28,1.64-6.61,6-3-.06,5.28-3.68,7.61-7.91,9.29C303.57,45.49,302.58,44.43,301.81,44Z" fill="#f3c8fc"/><path d="M142.08,61.76,144,59Z" fill="#c27ae0"/><path d="M282.84,26,284,28.84c.14,2.26-.4,4.91,3.1,5.14l1,2q-.52,7-1.06,14l0,0-3,0c-.06-.32,0-.77-.19-1-2.33-2.3-5.58-4.18-6.8-6.95s-.26-6.24-.26-9.56l-5.68.49c.45-3.4,2.84-4.09,5.74-4.08l2.09-2.07a2.64,2.64,0,0,1,.19-.82Z" fill="#f3c8fc"/><path d="M271.09,33l5.68-.49c0,3.32-.91,6.9.26,9.56s4.47,4.65,6.8,6.95c.19.19.13.64.19,1l-10-3c-3.14-1.24-5.17-3.25-4.81-6.91.26-1.69.52-3.37.77-5.06Z" fill="#e4a2f4"/><path d="M290.13,47,294,49l2,5-3,3h-3l-2-1.9L287,53c.13-.28.25-.57.37-.86l1.73-2Z" fill="#f0c0fa"/><path d="M289.06,50.11l-1.73,2c-.12-.72-.23-1.44-.35-2.16l0,0Z" fill="#e4a2f4"/><path d="M281,53l-1,0Z" fill="#cc85e6"/><path d="M319,15c5.21-1.05,5.65-2.07,3-7,3.47,1.87,8.59-.82,11,4l-2,5-2.61-2.8C325.3,16.82,322.33,18.35,319,15Z" fill="#d99af0"/><path d="M293,14.86c2.42-.57,4.84-1.18,7.28-1.68A19.82,19.82,0,0,1,303,13c.32,1.38.27,3.71,1,4,5.95,2.35,3.52,6.85,3.12,10.85-.09,1.34-.18,2.68-.28,4-1,1-1.92,2-2.89,3.07l-1.9-.06a33.66,33.66,0,0,0-3.42-2.82C296.85,30.94,294.9,30,293,29V26l6.92,1-4-5.7-.24,1L285.07,20C283.74,12.16,289.94,16,293,14.86Z" fill="#f0c0fa"/><path d="M231,65l-3.86-3.86,8.77-.55,2.22.68L234.89,65l-2.85,1v0Z" fill="#e9aef9"/><path d="M302.09,34.9,304,35c0,1,.06,2,.08,3.06L297,38l-3-1L289,36l-1,0-1-2,0-1.68a5,5,0,0,1,.92-.25l4,.83Z" fill="#b966dd"/><path d="M174,37c0-.87.07-1.73.11-2.6L176,34l0,2.73Z" fill="#ac52d4"/><path d="M179,32l.45,2.33-1.56-1.49Z" fill="#ac52d4"/><path d="M190,54.74l-3.22-1.13c-.28-1.82-.55-3.69-.83-5.56,1.8-.09,4-.45,2-2.7-2.72-3.12-6-5.72-9.09-8.54l5.1-2L196,36c1.43,6.82-1,12.81-4.06,18.64Z" fill="#f8d2fe"/><path d="M205.09,34.12l7.76,2c-.32,1.6-.63,3.21-.94,4.82-2.44,3.57-6-.16-8.73,1.32l-1.05-4C205.2,38.35,205.12,36.22,205.09,34.12Z" fill="#e9aef9"/><path d="M191.94,54.62C195,48.79,197.43,42.8,196,36l3.14,1.88-.9,6.34c.29,1.57.57,3.14.86,4.71-.76,1.28-1.51,2.57-2.26,3.85l-1.07,1Z" fill="#e9aef9"/><path d="M198.25,44.2c.29-2.11.59-4.23.89-6.34l3,.35,1.05,4C203.07,46.69,199.8,43.31,198.25,44.2Z" fill="#cc85e6"/><path d="M230,37.11l-6.21,2.76-6.89,1.23-2,0c.12-1.65.23-3.3.34-4.95,2.21-.92,4.39-3,6.72-.23l3-1,3.3,1.1Z" fill="#e9aef9"/><path d="M215.3,36.17,215,41.12l-3.06-.22c.31-1.61.62-3.22.94-4.82Z" fill="#c06fe0"/><path d="M178.9,36.81c3.06,2.82,6.37,5.42,9.09,8.54,2,2.25-.24,2.61-2,2.7l-6.9-2c-4.21-.59-5.91-3.37-6.32-7.27l.09,0,4.2-1.73Z" fill="#fbedfe"/><path d="M177,37.06l-4.2,1.73c.4-.61.79-1.22,1.19-1.82l2-.28Z" fill="#f8d2fe"/><path d="M228.32,36l-3.3-1.1,2.61-3Q228,34,228.32,36Z" fill="#b966dd"/><path d="M267,17l1.56,2.14L265,20C265.67,19,266.34,18,267,17Z" fill="#d99af0"/><path d="M220.68,58.9,215,61l-.9-11L217,43l9-1,2.12.49L229,43c-.54,1.81-.77,3.79-1.67,5.39C225.31,52,222.93,55.4,220.68,58.9Z" fill="#eeb4fb"/><path d="M241,41.86c-.93,1-1.9,2-2.78,3.06-2.49,3-5,5.95-7.43,8.93L227,56c1-2.14,2.12-4.22,2.92-6.43s1.23-4.41,1.82-6.63Z" fill="#e9aef9"/><path d="M231.75,42.91c-.59,2.22-1,4.48-1.82,6.63S228,53.83,227,56l-1,1-.42-.23L226,57c-.32.67-.64,1.33-.95,2l-4.37-.11c2.24-3.5,4.62-6.92,6.67-10.53.9-1.6,1.13-3.58,1.67-5.39Z" fill="#b966dd"/><path d="M226,42.05l-9,1c0-.65,0-1.29-.07-1.93l6.89-1.23L226,41.11C226,41.42,226,41.74,226,42.05Z" fill="#c06fe0"/><path d="M226,42.05c0-.31,0-.63,0-.94l2.13,1.44Z" fill="#b966dd"/><path d="M278.92,26.84l-2.09,2.07Z" fill="#ebb8f9"/><path d="M164,33.8l2.72,5.45c.35,3-1.81,3.84-4.93,3.07V42.2l-2.85-3.07-1-.13.08-3Z" fill="#a450cb"/><path d="M151,33c-.25-1.77-.49-3.53-.88-6.37,2.5.6,5.35.48,6.11,1.67,1,1.52.23,4.12.23,7L151,33Z" fill="#fbedfe"/><path d="M122,10l3,0c.76,2.16,1.51,4.33,2.27,6.48l-5,1.72c-.14-1.42-.27-2.83-.4-4.24Z" fill="#cc85e6"/><path d="M141,47a8.29,8.29,0,0,0-1,0l-4-2c0-1,0-2,0-3q1-5.51,2-11l-5.19-2.87L141,29c-.1,1-.21,2-.31,2.95L142,34c-.08,2.95.49,5.48,4,6.1,0,1,0,1.92,0,2.88Z" fill="#ac52d4"/><path d="M132.78,28.11,138,31c-6.34.64-.69,5.33-2.68,7.68L131,37l-5.13-7.34C127.74,27.27,130,26.32,132.78,28.11Z" fill="#eeb4fb"/><path d="M120,25c-2.23-.1-4.65.31-6.62-.46-1.69-.66-2.86-2.67-4.27-4.08L114,16.05q3,2,5.89,4.07l.31,1.08Z" fill="#fbedfe"/><path d="M120.18,21.2c-.1-.36-.21-.72-.31-1.08q1-3.09,2-6.16c.13,1.41.26,2.82.4,4.24Z" fill="#e9aef9"/><path d="M146,43c0-1,0-1.92,0-2.88L157,39c0,.68,0,1.35,0,2h0Z" fill="#b966dd"/><path d="M157,41c0-.67,0-1.34,0-2a6.62,6.62,0,0,1,.89,0l1,.13,0,1.95Z" fill="#d28bed"/><path d="M142,34,140.71,32C141.13,32.65,141.56,33.33,142,34Z" fill="#d99af0"/><path d="M287.08,32.3l0,1.68c-3.5-.23-3-2.88-3.1-5.14.4-1.59.79-3.19,1.18-4.78L293,26v3c-.34,1.29-.69,2.58-1,3.87l-4-.83c.21-1.12.43-2.23.65-3.35l-1.31-.15C287.26,29.8,287.17,31.05,287.08,32.3Z" fill="#ebb8f9"/><path d="M293,26l-7.88-2-.06-4.1,10.58,2.37.24-1,4,5.7Z" fill="#d99af0"/><path d="M36,44l-5.92-.27L28,43h0c-2.62-1.66-5.2-3.39-7.87-5C16,35.56,14.9,32.54,17,29.08l3.06,0c1,1.22,2.07,3.46,3.09,3.45A6.9,6.9,0,0,0,30,28h5c-.1,3.44-.37,6.88-.24,10.3A31.25,31.25,0,0,0,36,44ZM33.22,31.77l.2-.77-1.8-.5-.21.84Z" fill="#b5d6fa"/><path d="M20.07,29.11l-3.06,0,1.14-2.52,2.65,1.49Z" fill="#559cd1"/><path d="M28.09,45,26,46,28.06,43h0Z" fill="#8ec1ec"/><path d="M22.92,44.1l-2-1Z" fill="#8ec1ec"/><path d="M95,26.05c1.82-3.92,5.42-2.41,7.54-1.41,2.91,1.37,5.12,4.26,7.63,6.51L109,34,100,32l-5-1,0-2Z" fill="#f3c8fc"/><path d="M95,26.05c0,1,0,2,0,2.94-7.55-.17-5.58,6.18-7,10.21-4.14-4.11.08-8.79-.88-13.12Z" fill="#fbedfe"/><path d="M121.9,14q-1,3.08-2,6.16-2.94-2-5.89-4.07l8-6Z" fill="#f3c8fc"/><path d="M115,39l-2,0,.09-8.09L119,28.84c-.11,1.35.1,2.86-.42,4A59.72,59.72,0,0,1,115,39Z" fill="#b966dd"/><path d="M113.1,30.9,113,39l0,0-3-1L109,34l1.2-2.83L112,29.9c.34.36.69.71,1,1.07Z" fill="#c576e7"/><path d="M113.05,31c-.35-.36-.7-.71-1-1.07Z" fill="#b966dd"/><path d="M85,49.87q2.06-3.4,4.1-6.82c3,.63,6.08,1.14,9.05,1.94.72.2,1.19,1.32,1.78,2-3.77,1.62-9.45.57-9.74,7Z" fill="#8ec1ec"/><path d="M88,39.2c1.43-4-.54-10.38,7-10.21,0,.66,0,1.31,0,2-.56.91-1.53,1.8-1.59,2.74A30.72,30.72,0,0,0,94,39v1l-1,1.93Z" fill="#e9aef9"/><path d="M109,34,110,38l-1,1.88-1.91,0-7-1c0-2.33,0-4.65,0-7Z" fill="#e9aef9"/><path d="M79.1,45.15a2.42,2.42,0,0,1-.2.79L75,41c.59-2.36,1.19-4.71,1.79-7.07L83,35c0,1,.09,1.94.14,2.91Z" fill="#c9dffc"/><path d="M93,41.93,94,40l11,1Z" fill="#e4a2f4"/><path d="M83,35l-6.18-1.11,0-2.93,6.24-1Z" fill="#b5d6fa"/><path d="M79.1,45.15l4.05-7.21,1.86,3L83,43Z" fill="#b5d6fa"/><path d="M105,41,94,40c0-.34,0-.67,0-1l6,0,7,1Z" fill="#d28bed"/><path d="M108.92,39.91,110,38l3,1-1,3h-1Z" fill="#d28bed"/><path d="M83,43l2-2.1c.35.66.69,1.32,1,2C85.19,46.85,84.05,43.4,83,43Z" fill="#8ec1ec"/><path d="M76.86,31l0,2.93c-.6,2.36-1.2,4.71-1.79,7.07l-2,2c0,.65-.09,1.31-.13,2l-2.8,1.42L66.93,45c-.34-1.35-.67-2.7-1-4,.16-7.49,1.42-8.86,10.07-11Z" fill="#559cd1"/><path d="M38,28l-3,0a6.24,6.24,0,0,0,0-1c0-.67,0-1.34,0-2,.07-.32.13-.64.2-1L42,21l1.14-.9L46,19l1.93,0,3,3c3.86,1.17,6.7,5.52,12.5,3.29-.18,4.19-.34,8-.51,11.72l-6,1c-2-1.38-4-2.8-6-4.12C48.32,32.21,45.65,30.62,43,29Z" fill="#84bdeb"/><path d="M20.07,29.11l.73-1.06L30,28a6.9,6.9,0,0,1-6.85,4.56C22.14,32.57,21.1,30.33,20.07,29.11Z" fill="#fbedfe"/><path d="M30,17c2,.61,4.58.8,3,4Z" fill="#a9cef5"/><path d="M35,25c0,.67,0,1.34,0,2l-1.54-.81Z" fill="#b5d6fa"/><path d="M29,16l1,1Z" fill="#a9cef5"/><path d="M85,49.87,90.16,54c.63,1.76,1.17,3.55,1.91,5.26A18.58,18.58,0,0,0,93.86,62c-.29.36-.57.72-.86,1.07a58.7,58.7,0,0,1-6.77,2A26.36,26.36,0,0,1,81,65l.4-.42c1.14-.77,3.25-1.55,3.24-2.31-.05-3-.77-5.93-1.37-9.68l-3.06,3.51-.32-.24C79.22,51.89,83.2,51.82,85,49.87Z" fill="#b5d6fa"/><path d="M203.87,64.18l-7-2.7c.88-2.44,1.58-4.4,2.28-6.37,7.12-2.37,11.61.91,10.8,7.91,0,.31,0,.61,0,.91h0Z" fill="#eeb4fb"/><path d="M177.93,66l1.2-1.86,8.77-1C185.07,65.76,182.85,70.55,177.93,66Z" fill="#e9aef9"/><path d="M175,73l-1,2c-.36-.66-.73-1.32-1.1-2Z" fill="#cc85e6"/><path d="M164.94,74,166,73Z" fill="#d99af0"/><path d="M157,41l1.95.09,2.82,1.12v.12c1,2,2.52,4,3,6.11,1.72,8.1-2.05,11.41-12.76,11.56h-2l-2.87-3.12c.76-1.51,1.13-3.64,2.35-4.42,4.33-2.75,7-6.37,7.51-11.47Z" fill="#f0c0fa"/><path d="M172.73,38.81c.41,3.9,2.11,6.68,6.32,7.27-1.24.7-2.46,1.93-3.71,2-2.05.05-4.12-.69-6.18-1.1Z" fill="#f3c8fc"/><path d="M191.94,54.62l3.83-.84c.4,4.27-4.56,7-9,5l3.27-4Z" fill="#a450cb"/><path d="M209.93,63c.81-7-3.68-10.28-10.8-7.91-.76-.78-1.53-1.56-2.29-2.35.75-1.28,1.5-2.57,2.26-3.85,1.66.61,3.74.79,4.91,1.92,3.87,3.72,7,1.89,10.11-.85l.9,11c-1.87-.57-3.49-.77-3.09,2.06Z" fill="#cc85e6"/><path d="M38,28l5,1,3,3.93c.3,1.48.24,3.17,1,4.38,1.94,3.17,1,5.14-2.07,6.59-7.15-.92-5.77-7-6.8-11.49A19.91,19.91,0,0,1,38,28Z" fill="#b5d6fa"/><path d="M46,32.92,43,29c2.64,1.63,5.31,3.22,7.92,4.9,2,1.32,4,2.74,6,4.12-2.8,1.38-5.28,2.1-7.14-1.62C49.12,35,47.29,34.06,46,32.92Z" fill="#a9cef5"/><path d="M66.93,45l3.16,1.38c0,.55,0,1.08,0,1.62l-12,1c.66-1.68,1.33-3.35,2-5Z" fill="#84bdeb"/><path d="M131,37l4.29,1.63c2-2.35-3.66-7,2.68-7.68q-1,5.5-2,11Q131,42.06,131,37Z" fill="#d28bed"/><path d="M136,45l4,2-5,2C135.38,47.69,135.7,46.34,136,45Z" fill="#d28bed"/><path d="M157,41c-.56,5.1-3.18,8.72-7.51,11.47-1.22.78-1.59,2.91-2.35,4.42C141.63,55.75,141,51.61,141,47l5-4Z" fill="#d28bed"/><path d="M209.93,63h2l-2,.92C209.94,63.63,209.94,63.33,209.93,63Z" fill="#d28bed"/><path d="M231,65l1.05,1Z" fill="#b35cd9"/><path d="M28.09,45,28,43l2.06.77Z" fill="#63a6dc"/><path d="M288,55.08l2,1.9Z" fill="#e4a2f4"/><path d="M72.89,45c0-.65.09-1.31.13-2l2.55.51.07.79Z" fill="#c9dffc"/><path d="M80.19,56.13l3.06-3.51c.6,3.75,1.32,6.71,1.37,9.68,0,.76-2.1,1.54-3.24,2.31C81,61.78,80.59,59,80.19,56.13Z" fill="#fbedfe"/><path d="M288,36l1,0c.37,2.06.74,4.11,1.12,6.17,0,1.63,0,3.25,0,4.88l-1.07,3.09L287,50Q287.49,43,288,36Z" fill="#cc85e6"/><path d="M294,37l3,1-1.3,1.65Z" fill="#cc85e6"/><path d="M292,32.88c.34-1.29.69-2.58,1-3.87,1.9,1,3.85,1.93,5.67,3.07a33.66,33.66,0,0,1,3.42,2.82Z" fill="#d28bed"/><path d="M287.08,32.3c.09-1.25.18-2.5.26-3.75l1.31.15c-.22,1.12-.44,2.23-.65,3.35A5,5,0,0,0,287.08,32.3Z" fill="#f3c8fc"/><path d="M214.12,50c-3.15,2.74-6.24,4.57-10.11.85-1.17-1.13-3.25-1.31-4.91-1.92-.29-1.57-.57-3.14-.86-4.71,1.56-.89,4.83,2.49,4.94-2,2.75-1.48,6.29,2.25,8.73-1.32l3.06.22,2,0c0,.64.05,1.28.07,1.93Q215.57,46.5,214.12,50Z" fill="#a450cb"/><path d="M226,57l-.42-.23L226,57Z" fill="#c06fe0"/><path d="M161.76,42.2l-2.82-1.12,0-1.95Z" fill="#c06fe0"/><path d="M33.22,31.77l-1.81-.43.21-.84,1.8.5Z" fill="#c9dffc"/><path d="M100,39l-6,0a30.72,30.72,0,0,1-.54-5.29c.06-.94,1-1.83,1.59-2.74l5,1C100,34.31,100,36.63,100,39Z" fill="#e4a2f4"/></svg>