<svg id="圖層_1" data-name="圖層 1" xmlns="http://www.w3.org/2000/svg" viewBox="0 0 1280 720"><path d="M832,1c1,3.85,2.13,7.67,2.83,11.56,1.19,6.7-2.8,11.51-9.77,12.17-5.63.54-10.09-3.94-10-10.39.07-4.45.6-8.89.92-13.34Z" fill="#c2f7fe"/><path d="M657,721c0-6.11.44-12.11,4.13-18.51.44,1.86.71,2.71.84,3.58q1,7.47,2,14.93Z" fill="#ccf8fe"/><path d="M1017.08,96.82c.87-2.62,1.74-7.32,3.93-11.3a47,47,0,0,0,5.06-16.83c.1-.82,0-1.88.47-2.39,1.35-1.47,2.94-2.71,4.43-4,1.25,2,2.92,3.78,3.64,5.92.83,2.47.51,5.32,1.26,7.84,2.49,8.42,5.12,16.8,3.11,25.72-1.43,6.29-5.71,9.75-11,9.18C1021.89,110.27,1017,104.78,1017.08,96.82Z" fill="#c2f7fe"/><path d="M492.94,161.87a12.63,12.63,0,0,1-10.62,12,10.28,10.28,0,0,1-11.1-7.9c-2.43-9.4.32-18.28,3-27.18.71-2.36.46-5,1.23-7.36.71-2.18,2.19-4.1,3.33-6.14,1.54,1.23,4.36,2.39,4.43,3.7.58,11,7.3,20.06,9.43,30.52C492.82,160.5,492.89,161.49,492.94,161.87Z" fill="#c2f7fe"/><path d="M1011.85,564.05c1.76,4.71,3.79,9.34,5.23,14.14A22.33,22.33,0,0,1,1015.9,595c-1.37.86-2.66,2.21-4.14,2.48-3.47.61-7.26,1.55-10.47.69-1.88-.51-4.12-4.28-4-6.51.22-6.39,1.88-12.71,2.33-19.1.53-7.48.36-15,.5-22.51,0-1.32,0-2.65.08-4l6.77-3,0,0c0,1.81-.31,3.69.1,5.4C1008.33,553.76,1006.75,560,1011.85,564.05Z" fill="#b7f5fe"/><path d="M1222.93,348.31c0,2,.11,4,0,6-.27,4.08-5.67,9.91-9.58,9-2.53-.59-5.59-4-6.18-6.61-1-4.35-.42-9.12,0-13.68.79-9.22,1.85-18.42,2.93-27.61a7.41,7.41,0,0,1,1.6-4.09c1.86-2,4.39-1.9,5,.89,2.68,11.92,5,23.91,7.42,35.88Z" fill="#bcf6fe"/><path d="M613.35,206.21c2.29-10.44,4.26-19.3,6.17-28.19.55-2.57.5-5.36,1.48-7.73.58-1.4,2.67-3,4-3s3.71,1.79,4,3.13c1.58,7.92,2.25,16,4.08,23.9,1.53,6.63-.39,11.43-4.94,16.06-2.71,2.76-5.81,5-9,3.16C616.41,212,614.91,208.32,613.35,206.21Z" fill="#c0f6fe"/><path d="M273,309.76c.09,4.17.5,8.38-3.81,11.12s-8.82,1.88-12.63-.51-4.11-6.56-3.17-10.71c1.06-4.68,2.39-9.3,3.28-14,.53-2.84,0-5.93.78-8.67.6-2.12,2.14-4.73,4-5.5,1.22-.52,4.8,1.37,5.33,2.89,2.88,8.21,5.13,16.64,7.6,25Z" fill="#c0f6fe"/><path d="M287,176.38a73.19,73.19,0,0,1-.07,8c-.2,1.8-1,5-1.72,5-2.4.23-5.59.1-7.27-1.31-5.27-4.46-9.21-9.49-7.08-17.57,1.92-7.3,2.18-15,3.44-22.5.42-2.52,1.07-5.15,4.9-5.07,3.61.07,4.11,2.63,4.48,4.93,1.52,9.43,2.76,18.92,4.11,28.39Z" fill="#c0f6fe"/><path d="M108.37,153.54c2.79,12.81,5.91,25.56,8.11,38.47.46,2.72-1.66,7.08-4,8.74s-6.81,1.95-9.54.84c-4.5-1.83-5.31-7-4.58-11.15,1.22-6.93,3.85-13.59,5.61-20.44,1-3.81,1.39-7.76,2.06-11.64.29-1.67.59-3.33.88-5Z" fill="#c0f6fe"/><path d="M505.43,452.31c.85,11.5,2.12,23,2.35,34.52.09,4.65-4.59,8.21-8,8-3.8-.19-6.65-3.51-6.63-9,0-7.84.49-15.7,1.18-23.52.26-2.84,1.21-5.7,5.06-6.53,1.43-.31,2.39-2.77,3.57-4.25Z" fill="#bdf6fe"/><path d="M844,438.35c1.86-4.92,4.09-10.32,5.92-15.85a27.44,27.44,0,0,0,1.13-7.68c.19-6.5,1.87-10,5.39-9.67,5.21.53,6,4.54,6.71,9,1.24,7.66,3.11,15.22,4.64,22.83,1.06,5.29-1.48,10.58-5.87,12.55-6.17,2.77-12,2.14-14.82-2.18C845.61,445.09,845.23,442.17,844,438.35Zm7.84-10c.35,3.07.93,6.84,1.15,10.63.14,2.65,1.2,4.59,3.81,3.83,2-.58,5-2.58,5-4a208.33,208.33,0,0,0-1-24.34c-.15-1.58-3-2.89-4.63-4.33-1,1.53-2.67,2.95-3,4.61C852.38,419,852.24,423.34,851.8,428.38Z" fill="#c8f7fe"/><path d="M65,527.71c0,8.19-3.82,11.91-11.46,11.25-7.85-.68-12.68-6.54-11.29-13.88,1.56-8.27,3.26-16.53,4.93-24.78a6,6,0,0,1,.94-2.81c1.49-1.59,3.13-3.87,4.93-4.09,1.46-.18,3.24,2.23,4.87,3.51a.62.62,0,0,1,.2.44C57.28,508.18,65.71,516.91,65,527.71Zm-6.72-11.36c-.41-3.92-1-7.85-1.21-11.81-.16-2.73.07-6.15-3.34-6.2S49,501.26,49,504.7c0,4-.19,8-.36,11.95-.15,3.31-1.06,6.76-.36,9.86.45,2,3.2,3.48,4.92,5.19,1.28-1.64,3.19-3.11,3.69-5C57.77,523.43,57.83,519.89,58.26,516.35Z" fill="#c8f7fe"/><path d="M755.65,629.52c1.43,12.17,2.94,24.33,4.25,36.51.49,4.53-1.69,8.18-5.35,10.56-1,.68-4.14.16-4.69-.77a31.57,31.57,0,0,1-3.75-9.39,20.53,20.53,0,0,1,0-8.69c2.19-9.46,4.79-18.83,7.24-28.24Z" fill="#bcf6fe"/><path d="M150.23,604.07c2.82,10.89,5.46,20.36,7.64,29.93a22.54,22.54,0,0,1-.07,9.18,24.54,24.54,0,0,1-3.5,8.44c-.67,1-3.68,1.76-4.66,1.13a12,12,0,0,1-5.62-10C143.34,630,146.35,617.76,150.23,604.07Z" fill="#bcf6fe"/><path d="M303.13,675q.53-3.51,1-7c1.61-4.26,3.12-8.57,4.88-12.77A25.44,25.44,0,0,1,312,651c3.85,6.11,3.13,13.17,4.13,19.88,1.39,6.92,1.88,13.87-1.15,20.46-1,2.11-3,5.19-4.66,5.22-3.6.08-5.83-2.89-6.21-6.58-.27-2.64-.07-5.32-.08-8Q303.57,678.52,303.13,675Z" fill="#b6f5fe"/><path d="M1173.91,550.88q1.58-9.93,3.14-19.86c2.67-.19,3.45,1.13,4.09,3.7,1.13,4.55,3.09,8.9,4.7,13.33q.12,3.42.23,6.85c0,2.16,0,4.33-.07,6.49-.08,3.33.53,6.9-.52,9.89-.79,2.25-3.5,4.23-5.83,5.27-.68.31-3.63-2.71-4.43-4.67A33.9,33.9,0,0,1,1173.91,550.88Z" fill="#b6f5fe"/><path d="M134.47,355.94a50,50,0,0,1-3.34,7c-.67,1-2.89,2.09-3.68,1.69-2.73-1.37-7-3.13-7.29-5.19a63.84,63.84,0,0,1,.62-17.6c.76-5,2.63-9.92,4.16-14.83a11.54,11.54,0,0,1,2-2.88c1.1.84,2.7,1.48,3.17,2.58A23.07,23.07,0,0,1,131.4,333c.8,7.56,1.5,15.12,2.23,22.69Z" fill="#bbf6fe"/><path d="M1107,634l-.18,2.93c-.59.49-1.43.85-1.75,1.48-3.15,6.15-3.12,6.16-9.88,3.67-.77-8.67-1.54-17.45-2.31-26.24l.24-3.83,2.91-3.9,2-.11c3.57-.46,5.7,1.15,6.28,4.63,1,5.77,1.79,11.56,2.67,17.34Z" fill="#b5f5fe"/><path d="M384.86,82l.24,3.83-2.49,26.49c-5.45,2.45-8.81,1.44-9.9-4.37-.08-.42-1-.69-1.55-1-.08-1.29-.16-2.58-.23-3.87,0-1,0-2.06.07-3.09.88-5.79,1.71-11.58,2.67-17.35.58-3.48,2.72-5.08,6.28-4.62l2,.11Z" fill="#b5f5fe"/><path d="M1173.91,550.88a33.9,33.9,0,0,0,1.31,21c.8,2,3.75,5,4.43,4.67,2.33-1,5-3,5.83-5.27,1-3,.44-6.56.52-9.89,0-2.16,0-4.33.07-6.49.83,1.47,2.14,2.86,2.4,4.42a102.75,102.75,0,0,1,1.44,13.75,11.28,11.28,0,0,1-8.85,11.71c-4.67,1.16-11-1.31-13-6.12-1.48-3.59-2.75-8.16-1.79-11.67C1167.83,561.35,1171.28,556.22,1173.91,550.88Z" fill="#c8f7fe"/><path d="M357.07,475c.58-4.57,1-9.18,1.85-13.7.28-1.48,1.72-2.75,2.62-4.11,1.11,1.32,2.88,2.49,3.2,4,1.6,7.57,2.83,15.22,4.19,22.84-1,3.92-1.8,7.91-3.12,11.73-.45,1.29-2.23,3-3.37,3a5.6,5.6,0,0,1-4.17-2.6c-.85-1.74-.69-4-.77-6.09C357.3,485,357.21,480,357.07,475Z" fill="#bbf6fe"/><path d="M994.83,504.05q.1,3,.23,5.93l1.83,17c-.33,2.33-.65,4.67-1,7-7.34,2.08-8.64,1.3-10.12-6.18-.91-4.58-1.79-9.17-2.68-13.76q1-6,2-12C989,499.62,991.68,502.87,994.83,504.05Z" fill="#baf6fe"/><path d="M371.16,107c.54.34,1.47.61,1.55,1,1.09,5.81,4.45,6.82,9.9,4.37l2.49-26.49c1.76,4.65,4.21,9.18,5.1,14,1,5.4,1.58,11.26.53,16.56-1.43,7.26-9,8.94-14.75,4A14,14,0,0,1,371.16,107Z" fill="#c8f7fe"/><path d="M1092.9,615.87c.77,8.79,1.54,17.57,2.31,26.24,6.76,2.49,6.73,2.48,9.88-3.67.32-.63,1.16-1,1.75-1.48a14.32,14.32,0,0,1-4.42,13.12,9.5,9.5,0,0,1-10.08,2.46,8.67,8.67,0,0,1-6-9.43c1.1-8.94,3.41-17.74,5.3-26.59C1091.68,616.23,1092.46,616.09,1092.9,615.87Z" fill="#c8f7fe"/><path d="M1000.08,550c-.14,7.5,0,15-.5,22.51-.45,6.39-2.11,12.71-2.33,19.1-.08,2.23,2.16,6,4,6.51,3.21.86,7-.08,10.47-.69,1.48-.27,2.77-1.62,4.14-2.48-2.25,7.34-10.51,9.62-16.61,4.8-6.58-5.2-10.06-11.86-8.1-20C993.6,569.7,997.07,559.92,1000.08,550Z" fill="#cbf8fe"/><path d="M1182.08,170c.92-4.5,1.8-9,2.75-13.5a96.28,96.28,0,0,1,3.52-13c2,5.24,2.39,10.81,2.71,16.39.34,7.24.43,14.5,1.15,21.7.3,3,.53,5.46-2.76,6.24-3.73.89-4.94-1.83-5.44-4.83C1183.29,178.7,1182.72,174.36,1182.08,170Z" fill="#baf6fe"/><path d="M1123.11,427c0-.66,0-1.33,0-2,.54-.32,1.42-.53,1.57-1,1.35-4,3.1-3.66,5.37-.72.33.44,1.17.48,1.78.7q.54,3.48,1.06,7a14.24,14.24,0,0,0-.87,3.68c.18,4.26,1.2,8.57.71,12.72-.31,2.63-2.73,5-4.21,7.49-1.7-1.66-4.11-3-4.93-5.05-1.38-3.39-1.74-7.2-2.52-10.83l1.08-9C1122.49,429,1122.8,428,1123.11,427Z" fill="#bbf6fe"/><path d="M204.09,250.89c5.82,8.67,4.67,22.83-5.14,25.27-5,1.25-9.43-1.05-9.82-6.08-.65-8.51.11-16.94,3.45-24.91.56-1.32,2.19-2.2,3.33-3.29-.27,5.93-.58,11.85-.78,17.78-.06,1.74.73,3.72.14,5.19-.8,2-2.2,4,.61,4.72,1.39.35,4.47-1.17,4.83-2.41C202.23,261.85,203,256.33,204.09,250.89Z" fill="#cbf8fe"/><path d="M1101,232.08c5.18,5.25,4.91,12.25,5.94,18.8a16.62,16.62,0,0,1-.05,6.92c-.8,2.8-1.84,6.14-3.93,7.81-3.2,2.56-7,.82-10-1.44-5.53-4.23-6-17.85-1-23.27,1.11,5.81,2,11.66,3.51,17.38.27,1.06,2.73,1.55,4.19,2.31a34.05,34.05,0,0,0,1.45-4.92c.12-.84-.85-1.81-.82-2.71C1100.42,246,1100.71,239,1101,232.08Z" fill="#cbf8fe"/><path d="M452.3,381.26c5.14,6.1,5.94,13.35,6.3,20.51.16,3.22-1.7,7.26-5.59,6.85-2.39-.25-6.07-3.21-6.41-5.39C445.37,395.46,444.52,387.29,452.3,381.26Z" fill="#c5f7fe"/><path d="M1038.38,337.54c1.74,2.63,4.43,5.08,5,7.94a41.06,41.06,0,0,1,.14,13.77c-.49,3.27-3.13,6.87-6.86,5.34-2.41-1-5.33-4.93-5.12-7.3.57-6.5,2.67-12.87,4.16-19.29Z" fill="#c5f7fe"/><path d="M304,682c0,2.66-.19,5.34.08,8,.38,3.69,2.61,6.66,6.21,6.58,1.62,0,3.69-3.11,4.66-5.22,3-6.59,2.54-13.54,1.15-20.46q3.44,6.57,6.86,13.14l.95,2,0,3c-.81,2-1.47,4-2.46,5.89-2,3.75-4.17,7.09-9.23,7.14s-8.06-2.4-10.07-6.72a10.93,10.93,0,0,0-2.09-2.35l.06-7Z" fill="#c8f7fe"/><path d="M608,623l1.08-3c3.17-.5,4.72.93,5.51,4,.89,3.4,2.28,6.66,3.45,10,.29,1.33.57,2.67.86,4-.63,1.68-.95,3.59-2,5a61.74,61.74,0,0,1-5.46,5.89c-1.54-1.94-4.32-3.84-4.38-5.83C606.86,636.4,607.61,629.69,608,623Z" fill="#b7f5fe"/><path d="M880.93,576l1.08,3a29.36,29.36,0,0,1,.44,2.94c.26,5.71.89,11.46.48,17.13-.15,2-2.85,3.9-4.39,5.84-1.83-1.78-3.92-3.37-5.38-5.41-1.1-1.52-1.4-3.62-2-5.47,0-1,0-2,.08-3,1.31-3.34,2.77-6.63,3.91-10C876.09,578.1,876.84,575.19,880.93,576Z" fill="#b7f5fe"/><path d="M1101,232.08c-.26,7-.55,13.92-.72,20.88,0,.9.94,1.87.82,2.71a34.05,34.05,0,0,1-1.45,4.92c-1.46-.76-3.92-1.25-4.19-2.31-1.47-5.72-2.4-11.57-3.51-17.38l2.22-11.85L1099,229C1099.66,230,1100.31,231.05,1101,232.08Z" fill="#b7f5fe"/><path d="M1182.08,170c.64,4.33,1.21,8.67,1.93,13,.5,3,1.71,5.72,5.44,4.83,3.29-.78,3.06-3.27,2.76-6.24-.72-7.2-.81-14.46-1.15-21.7,2,5.08,4.33,10.06,5.73,15.29a24.86,24.86,0,0,1,.16,10.17c-1,5.59-4.06,8-8.69,7.57-4.81-.39-9.33-4.65-9-9.56C1179.57,178.88,1181.1,174.47,1182.08,170Z" fill="#caf8fe"/><path d="M204.09,250.89c-1.06,5.44-1.86,11-3.38,16.27-.36,1.24-3.44,2.76-4.83,2.41-2.81-.71-1.41-2.75-.61-4.72.59-1.47-.2-3.45-.14-5.19.2-5.93.51-11.85.78-17.78L197,239l4.87.05Q203,245,204.09,250.89Z" fill="#b7f5fe"/><path d="M871.11,594c.65,1.85.95,4,2,5.47,1.46,2,3.55,3.63,5.38,5.41,1.54-1.94,4.24-3.8,4.39-5.84.41-5.67-.22-11.42-.48-17.13A29.36,29.36,0,0,0,882,579c5.24,4.62,8.85,18.48,6.47,24.85-1.83,4.93-7.6,7.58-13.15,6-4.14-1.15-6.74-6.28-5.62-11.29C870.06,597,870.64,595.54,871.11,594Z" fill="#ccf8fe"/><path d="M608,623c-.38,6.7-1.13,13.41-.91,20.08.06,2,2.84,3.89,4.38,5.83a61.74,61.74,0,0,0,5.46-5.89c1-1.4,1.34-3.31,2-5,.05,4.11,1.1,8.53-.1,12.23-1.44,4.45-6.52,4.64-10.22,3.48a12.62,12.62,0,0,1-6.92-6.11C598.69,641.2,602.59,627.74,608,623Z" fill="#ccf8fe"/><path d="M1121.11,439c.78,3.63,1.14,7.44,2.52,10.83.82,2,3.23,3.39,4.93,5.05,1.48-2.49,3.9-4.86,4.21-7.49.49-4.15-.53-8.46-.71-12.72a14.24,14.24,0,0,1,.87-3.68c1.34,6.56,3.26,13.07,3.83,19.69.42,4.93-4.73,8.59-9.9,8.26-4.13-.26-6.88-3.58-6.79-8.81C1120.13,446.45,1120.74,442.74,1121.11,439Z" fill="#ccf8fe"/><path d="M357.07,475c.14,5,.23,10,.43,15,.08,2.07-.08,4.35.77,6.09a5.6,5.6,0,0,0,4.17,2.6c1.14,0,2.92-1.68,3.37-3,1.32-3.82,2.12-7.81,3.12-11.73.16,4.68.89,9.43.26,14-.43,3.18-3.2,5.25-7,5-4.08-.28-7.09-2-8.22-6C351.75,489.27,354.45,482.13,357.07,475Z" fill="#cbf8fe"/><path d="M207.3,657.47l-8.28,1c-4.48-8-.69-15.91.33-23.91l1.86-.38Z" fill="#caf8fe"/><path d="M704.47,658.52c1.55,8,4.64,15.87.64,24l-8.32-1.14c2-7.82,4-15.5,5.94-23.19Z" fill="#cbf8fe"/><path d="M1185.84,548.05c-1.61-4.43-3.57-8.78-4.7-13.33-.64-2.57-1.42-3.89-4.09-3.7q1.52-6.85,3-13.71h1.84C1185.49,527.18,1185.56,537.63,1185.84,548.05Z" fill="#cbf8fe"/><path d="M312,651a25.44,25.44,0,0,0-2.92,4.27c-1.76,4.2-3.27,8.51-4.88,12.77.36-10.38.52-20.79,3.72-30.74l2.35-.09Q311.09,644.11,312,651Z" fill="#caf8fe"/><path d="M380,78c-3.56-.46-5.7,1.14-6.28,4.62-1,5.77-1.79,11.56-2.67,17.35h-2c-.31-1-.63-2-.95-3-.31-1.33-.61-2.65-.92-4V91c.31-1.32.61-2.64.92-4,.29-6.25,3.13-11.16,7.92-15h3.94C379.92,74,379.94,76,380,78Z" fill="#c8f7fe"/><path d="M1107,630c-.88-5.78-1.71-11.57-2.67-17.34-.58-3.48-2.71-5.09-6.28-4.63,0-2,0-4,0-6H1102l6.94,11q.48,7,1,14c-.31,1-.63,2-.94,3Z" fill="#c8f7fe"/><path d="M983.11,514c.89,4.59,1.77,9.18,2.68,13.76,1.48,7.48,2.78,8.26,10.12,6.18-2,1.64-4.37,4.95-5.81,4.58a12.44,12.44,0,0,1-7.3-5.57C979.69,526.86,980.9,520.32,983.11,514Z" fill="#ccf8fe"/><path d="M1006.93,543l-6.77,3c.78-7.47,1.57-14.95,2.5-23.86C1006.93,529.54,1007.1,536.25,1006.93,543Z" fill="#cbf8fe"/><path d="M1011.85,564.05c-5.1-4.1-3.52-10.29-4.78-15.57-.41-1.71-.09-3.59-.1-5.4l2.37-5.82,1.53.18Q1011.35,550.74,1011.85,564.05Z" fill="#ccf8fe"/><path d="M300.08,693a10.93,10.93,0,0,1,2.09,2.35c2,4.32,5,6.76,10.07,6.72s7.27-3.39,9.23-7.14c1-1.88,1.65-3.92,2.46-5.89,1.2,5.27-.86,9.58-4.61,12.89-3.35,3-7.43,4.12-11.94,2.22C302.4,702.06,300,698.36,300.08,693Z" fill="#caf8fe"/><path d="M880.93,576c-4.09-.84-4.84,2.07-5.83,5-1.14,3.4-2.6,6.69-3.91,10,.71-6.13,1.42-12.27,2.27-19.59C876.54,573.9,880.73,571,880.93,576Z" fill="#ccf8fe"/><path d="M618,634c-1.17-3.33-2.56-6.59-3.45-10-.79-3.06-2.34-4.49-5.51-4-.23-5,4.4-1.79,6.35-4.65C617.3,622.11,620,627.68,618,634Z" fill="#ccf8fe"/><path d="M1131.87,424c-.61-.22-1.45-.26-1.78-.7-2.27-2.94-4-3.25-5.37.72-.15.45-1,.66-1.57,1,.94-3.28,1.75-6.61,2.9-9.82.31-.87,1.83-2.08,2.42-1.9a4,4,0,0,1,2.4,2.49A77.69,77.69,0,0,1,1131.87,424Z" fill="#ccf8fe"/><path d="M873.43,254.85v-17C876.55,242.35,876.9,250.72,873.43,254.85Z" fill="#ccf8fe"/><path d="M996.89,527l-1.83-17Z" fill="#ccf8fe"/><path d="M994.83,504.05c-3.15-1.18-5.87-4.43-9.76-2,.15-1.95.3-3.9.54-7.23Z" fill="#ccf8fe"/><path d="M1109.94,627q-.48-7-1-14C1111.7,617.5,1111.81,622.17,1109.94,627Z" fill="#caf8fe"/><path d="M304,682l-3.85,4q1.5-5.47,3-11Q303.57,678.53,304,682Z" fill="#caf8fe"/><path d="M201.86,239.05,197,239c.37-1.28.73-2.55,1.1-3.82l1.38-.25Q200.65,237,201.86,239.05Z" fill="#cbf8fe"/><path d="M1099,229l-4.86.05,2.85-5.42C1098,226.36,1098.51,227.68,1099,229Z" fill="#cbf8fe"/><path d="M384.86,82,382,78.14Z" fill="#caf8fe"/><path d="M1096.05,608.14l-2.91,3.9Z" fill="#caf8fe"/><path d="M368.05,87c-.31,1.33-.61,2.65-.92,4C367.44,89.67,367.74,88.35,368.05,87Z" fill="#caf8fe"/><path d="M367.13,93c.31,1.33.61,2.65.92,4C367.74,95.65,367.44,94.33,367.13,93Z" fill="#caf8fe"/><path d="M1107,630h2l-2,4C1107,632.69,1107,631.34,1107,630Z" fill="#caf8fe"/><path d="M1123.11,427c-.31,1-.62,2-.92,3C1122.5,429,1122.81,428,1123.11,427Z" fill="#ccf8fe"/><path d="M369,100h2c0,1-.05,2.06-.07,3.09C370.28,102.06,369.64,101,369,100Z" fill="#caf8fe"/><path d="M379.91,72H376C377.29,69.83,378.61,69.47,379.91,72Z" fill="#caf8fe"/><path d="M1102,602h-3.93C1099.4,599.47,1100.71,599.83,1102,602Z" fill="#caf8fe"/><path d="M323.9,686l-.95-2Z" fill="#caf8fe"/><path d="M851.8,428.38c.44-5,.58-9.37,1.32-13.59.29-1.66,1.93-3.08,3-4.61,1.61,1.44,4.48,2.75,4.63,4.33a208.33,208.33,0,0,1,1,24.34c0,1.41-3,3.41-5,4-2.61.76-3.67-1.18-3.81-3.83C852.73,435.22,852.15,431.45,851.8,428.38Z" fill="#b6f5fe"/><path d="M58.26,516.35c-.43,3.54-.49,7.08-1.4,10.39-.5,1.85-2.41,3.32-3.69,5-1.72-1.71-4.47-3.19-4.92-5.19-.7-3.1.21-6.55.36-9.86.17-4,.37-8,.36-11.95,0-3.44,1.32-6.42,4.74-6.36s3.18,3.47,3.34,6.2C57.28,508.5,57.85,512.43,58.26,516.35Z" fill="#b6f5fe"/></svg>